<svg xmlns="http://www.w3.org/2000/svg" xmlns:xlink="http://www.w3.org/1999/xlink" width="1024" zoomAndPan="magnify" viewBox="0 0 768 767.999994" height="1024" preserveAspectRatio="xMidYMid meet" version="1.0"><defs><clipPath id="4d758b8246"><path d="M 76.800781 139 L 422.855469 139 L 422.855469 600.609375 L 76.800781 600.609375 Z M 76.800781 139 " clip-rule="nonzero"/></clipPath></defs><g clip-path="url(#4d758b8246)"><path fill="#a87b05" d="M 422.722656 169.257812 C 422.722656 166.375 420.5625 162.773438 416.957031 162.050781 C 293 132.503906 183.460938 132.503906 81.84375 162.050781 C 78.242188 162.773438 76.800781 165.65625 76.800781 169.257812 L 76.800781 218.265625 C 76.800781 219.707031 77.519531 221.867188 78.242188 222.589844 L 173.371094 337.175781 C 174.8125 338.617188 176.972656 339.335938 178.414062 340.058594 C 180.578125 340.058594 182.019531 339.335938 183.460938 337.894531 L 204.359375 318.4375 L 222.375 336.453125 L 187.785156 537.523438 C 187.0625 539.683594 187.785156 541.847656 189.945312 544.007812 L 243.996094 598.058594 C 245.4375 599.5 247.597656 600.222656 249.039062 600.222656 C 251.203125 600.222656 252.644531 599.5 254.085938 598.058594 L 308.136719 544.007812 C 309.578125 542.566406 310.296875 539.683594 310.296875 537.523438 L 275.707031 336.453125 L 293.722656 318.4375 L 314.621094 337.894531 C 316.0625 339.335938 318.226562 340.058594 319.667969 340.058594 C 321.828125 340.058594 323.992188 339.335938 324.710938 337.175781 L 419.839844 221.867188 C 420.5625 220.425781 421.28125 218.984375 421.28125 217.542969 Z M 396.058594 172.140625 L 249.761719 257.179688 L 102.023438 171.421875 C 192.109375 148.359375 288.679688 148.359375 396.058594 172.140625 Z M 179.855469 322.761719 L 91.214844 215.382812 L 91.214844 181.511719 L 238.230469 267.269531 Z M 249.761719 583.644531 L 202.917969 536.800781 L 236.789062 341.5 L 262.734375 341.5 L 296.605469 536.800781 Z M 265.617188 327.085938 L 233.1875 327.085938 L 215.890625 309.070312 L 249.761719 275.199219 L 283.632812 309.070312 Z M 319.667969 322.761719 L 261.292969 267.269531 L 408.308594 181.511719 L 408.308594 215.382812 Z M 319.667969 322.761719 " fill-opacity="1" fill-rule="nonzero"/></g><path fill="#a87b05" d="M 360.503906 616.726562 C 359.652344 616.726562 358.769531 616.535156 357.980469 616.125 C 355.171875 614.707031 354.066406 611.296875 355.488281 608.519531 C 375.085938 569.765625 390.171875 512.894531 404.785156 457.882812 C 412.105469 430.332031 419.019531 404.292969 426.183594 381.761719 L 427.128906 378.886719 C 428.105469 375.921875 431.292969 374.3125 434.292969 375.289062 C 437.257812 376.269531 438.835938 379.488281 437.859375 382.453125 L 436.976562 385.199219 C 429.875 407.480469 422.996094 433.394531 415.703125 460.785156 C 400.964844 516.363281 385.691406 573.835938 365.554688 613.632812 C 364.578125 615.589844 362.589844 616.726562 360.503906 616.726562 " fill-opacity="1" fill-rule="nonzero"/><path fill="#a87b05" d="M 428.582031 624.363281 C 428.105469 624.363281 427.601562 624.300781 427.097656 624.140625 C 424.066406 623.320312 422.300781 620.195312 423.152344 617.199219 C 433.789062 578.570312 440.511719 530.3125 447.042969 483.636719 C 450.988281 455.390625 454.710938 428.691406 459.128906 405.429688 C 460.738281 396.941406 462.980469 388.042969 465.757812 378.984375 C 466.703125 376.015625 469.859375 374.34375 472.859375 375.257812 C 475.824219 376.175781 477.5 379.363281 476.582031 382.328125 C 473.902344 390.976562 471.753906 399.464844 470.238281 407.546875 C 465.851562 430.519531 462.160156 457.09375 458.246094 485.183594 C 451.683594 532.238281 444.898438 580.875 434.039062 620.195312 C 433.347656 622.691406 431.074219 624.363281 428.582031 624.363281 " fill-opacity="1" fill-rule="nonzero"/><path fill="#a87b05" d="M 554.472656 623.574219 C 551.980469 623.574219 549.707031 621.933594 549.015625 619.40625 C 538.316406 580.210938 531.5625 531.890625 525.027344 485.152344 C 521.113281 457.0625 517.390625 430.519531 513.035156 407.546875 C 511.550781 399.558594 509.40625 391.101562 506.691406 382.328125 C 505.777344 379.363281 507.449219 376.175781 510.414062 375.257812 C 513.414062 374.34375 516.570312 375.984375 517.484375 378.984375 C 520.324219 388.167969 522.566406 397.066406 524.144531 405.429688 C 528.5625 428.660156 532.285156 455.359375 536.230469 483.574219 C 542.703125 529.96875 549.390625 577.90625 559.933594 616.441406 C 560.753906 619.441406 558.988281 622.5625 555.957031 623.382812 C 555.484375 623.511719 554.980469 623.574219 554.472656 623.574219 " fill-opacity="1" fill-rule="nonzero"/><path fill="#a87b05" d="M 623.371094 616.726562 C 621.285156 616.726562 619.296875 615.589844 618.320312 613.632812 C 598.3125 574.121094 583.351562 517.121094 568.898438 461.988281 C 561.574219 434.117188 554.664062 407.796875 547.46875 385.199219 L 546.582031 382.453125 C 545.605469 379.488281 547.214844 376.269531 550.148438 375.289062 C 553.148438 374.3125 556.335938 375.921875 557.3125 378.886719 L 558.261719 381.761719 C 565.550781 404.640625 572.496094 431.121094 579.847656 459.113281 C 594.144531 513.683594 608.945312 570.078125 628.386719 608.519531 C 629.808594 611.296875 628.703125 614.707031 625.894531 616.125 C 625.105469 616.535156 624.222656 616.726562 623.371094 616.726562 " fill-opacity="1" fill-rule="nonzero"/><path fill="#a87b05" d="M 530.992188 296.644531 C 528.375 296.644531 526.039062 294.8125 525.46875 292.160156 C 522 275.8125 538.628906 223.203125 542.226562 212.15625 C 535.886719 181.921875 534.78125 164.941406 534.652344 157.777344 L 531.433594 156.328125 L 496.875 210.894531 C 495.835938 212.535156 494.257812 213.546875 492.046875 213.515625 C 490.089844 213.515625 488.292969 212.503906 487.28125 210.832031 L 453.734375 156.230469 L 449.535156 157.90625 C 449.472656 165.039062 448.398438 181.511719 442.246094 211.148438 C 448.621094 228.632812 465.789062 278.9375 458.214844 293.582031 C 456.761719 296.359375 453.355469 297.433594 450.578125 295.980469 C 447.800781 294.558594 446.726562 291.152344 448.148438 288.375 C 451.933594 281.050781 442.246094 243.8125 431.042969 213.515625 C 430.695312 212.503906 430.601562 211.429688 430.820312 210.390625 C 439.3125 170.308594 438.207031 154.75 438.207031 154.621094 C 437.984375 152.160156 439.40625 149.824219 441.710938 148.878906 L 453.953125 143.921875 C 456.511719 142.914062 459.445312 143.859375 460.898438 146.226562 L 492.175781 197.164062 L 524.492188 146.164062 C 526.007812 143.796875 529.003906 142.882812 531.59375 144.019531 L 542.671875 148.972656 C 544.816406 149.921875 546.171875 152.160156 545.984375 154.527344 C 545.984375 154.652344 545.070312 171.066406 553.589844 211.304688 C 553.8125 212.25 553.746094 213.292969 553.433594 214.238281 C 545.699219 237.75 534.242188 279.0625 536.515625 289.792969 C 537.179688 292.855469 535.222656 295.855469 532.160156 296.515625 C 531.78125 296.578125 531.371094 296.644531 530.992188 296.644531 " fill-opacity="1" fill-rule="nonzero"/><path fill="#a87b05" d="M 437.828125 612.621094 C 439.34375 612.621094 440.824219 612.65625 442.308594 612.75 C 450.957031 613.253906 459.226562 615.148438 467.210938 617.007812 C 475.824219 618.996094 483.96875 620.859375 491.859375 620.859375 C 491.921875 620.859375 492.015625 620.859375 492.109375 620.859375 C 501.167969 620.828125 510.195312 618.621094 518.90625 616.503906 C 526.386719 614.675781 534.117188 612.78125 541.785156 612.277344 C 550.9375 611.644531 559.902344 612.558594 568.550781 613.441406 C 577.386719 614.296875 585.75 615.148438 593.039062 614.199219 C 603.078125 612.9375 611.785156 609.53125 620.183594 606.246094 C 626.839844 603.628906 633.121094 601.136719 639.621094 599.9375 C 652.308594 597.503906 667.175781 595.453125 677.433594 594.160156 C 662.503906 576.582031 629.050781 530.15625 605.570312 445.195312 C 578.554688 347.296875 537.148438 305.511719 528.972656 298 L 455.46875 298 C 447.296875 305.511719 405.890625 347.296875 378.875 445.195312 C 355.015625 531.609375 321.054688 577.96875 305.875 595.453125 C 311.019531 596.179688 316.382812 596.746094 321.65625 597.285156 C 329.988281 598.136719 337.875 598.957031 344.789062 600.347656 C 352.960938 601.988281 360.410156 604.921875 367.605469 607.761719 C 375.589844 610.917969 383.132812 613.886719 391.085938 614.894531 C 399.828125 616 409.296875 614.988281 418.449219 614.011719 C 424.824219 613.316406 431.421875 612.621094 437.828125 612.621094 Z M 491.859375 632.191406 C 482.675781 632.191406 473.523438 630.074219 464.652344 628.023438 C 457.109375 626.289062 449.347656 624.488281 441.644531 624.046875 C 434.765625 623.605469 427.414062 624.425781 419.648438 625.246094 C 409.832031 626.320312 399.703125 627.394531 389.667969 626.128906 C 380.292969 624.929688 371.742188 621.554688 363.441406 618.273438 C 356.71875 615.621094 349.742188 612.875 342.546875 611.421875 C 336.171875 610.128906 328.535156 609.371094 320.488281 608.519531 C 314.996094 607.953125 309.441406 607.382812 304.074219 606.625 C 299.152344 605.964844 295.238281 603.125 293.820312 599.273438 C 292.652344 596.054688 293.378906 592.519531 295.777344 589.835938 C 309.441406 574.59375 343.808594 529.652344 367.953125 442.199219 C 398.976562 329.78125 447.738281 289.605469 449.789062 287.933594 C 450.796875 287.113281 452.03125 286.703125 453.324219 286.703125 L 531.121094 286.703125 C 532.414062 286.703125 533.675781 287.113281 534.683594 287.933594 C 536.738281 289.605469 585.464844 329.8125 616.488281 442.167969 C 640.222656 528.136719 674.117188 573.203125 687.59375 588.605469 C 689.960938 591.320312 690.625 594.855469 689.394531 598.074219 C 687.941406 601.957031 683.902344 604.734375 678.882812 605.363281 C 668.816406 606.65625 654.171875 608.675781 641.738281 611.042969 C 636.277344 612.054688 630.46875 614.328125 624.316406 616.757812 C 615.699219 620.164062 605.917969 623.984375 594.460938 625.4375 C 585.875 626.539062 576.914062 625.625 567.414062 624.679688 C 559.207031 623.859375 550.71875 623.007812 542.542969 623.574219 C 535.820312 624.015625 528.910156 625.6875 521.589844 627.488281 C 512.246094 629.761719 502.558594 632.125 492.175781 632.191406 C 492.046875 632.191406 491.953125 632.191406 491.859375 632.191406 " fill-opacity="1" fill-rule="nonzero"/></svg>