<svg xmlns="http://www.w3.org/2000/svg" xmlns:xlink="http://www.w3.org/1999/xlink" width="1024" zoomAndPan="magnify" viewBox="0 0 768 767.999994" height="1024" preserveAspectRatio="xMidYMid meet" version="1.0"><defs><clipPath id="227f874d2a"><path d="M 433 526 L 657 526 L 657 691.050781 L 433 691.050781 Z M 433 526 " clip-rule="nonzero"/></clipPath><clipPath id="cd09a3517f"><path d="M 411 468 L 678.953125 468 L 678.953125 547 L 411 547 Z M 411 468 " clip-rule="nonzero"/></clipPath><clipPath id="49f65d33f9"><path d="M 503 468 L 524 468 L 524 691.050781 L 503 691.050781 Z M 503 468 " clip-rule="nonzero"/></clipPath><clipPath id="b35a1e99d0"><path d="M 566 468 L 587 468 L 587 691.050781 L 566 691.050781 Z M 566 468 " clip-rule="nonzero"/></clipPath><clipPath id="dc98d047e2"><path d="M 88.703125 76.800781 L 556 76.800781 L 556 664 L 88.703125 664 Z M 88.703125 76.800781 " clip-rule="nonzero"/></clipPath></defs><g clip-path="url(#227f874d2a)"><path fill="#a87b05" d="M 646.769531 691.105469 L 443.507812 691.105469 C 442.839844 691.105469 442.183594 691.039062 441.53125 690.910156 C 440.878906 690.78125 440.25 690.589844 439.632812 690.335938 C 439.019531 690.082031 438.4375 689.769531 437.886719 689.398438 C 437.332031 689.03125 436.820312 688.613281 436.351562 688.140625 C 435.882812 687.671875 435.464844 687.160156 435.09375 686.609375 C 434.726562 686.054688 434.414062 685.472656 434.160156 684.859375 C 433.90625 684.246094 433.714844 683.613281 433.582031 682.960938 C 433.453125 682.308594 433.390625 681.652344 433.390625 680.988281 L 433.390625 536.546875 C 433.390625 535.882812 433.453125 535.222656 433.582031 534.570312 C 433.714844 533.921875 433.90625 533.289062 434.160156 532.675781 C 434.414062 532.058594 434.726562 531.476562 435.09375 530.925781 C 435.464844 530.371094 435.882812 529.863281 436.351562 529.390625 C 436.820312 528.921875 437.332031 528.503906 437.886719 528.132812 C 438.4375 527.765625 439.019531 527.453125 439.632812 527.199219 C 440.25 526.945312 440.878906 526.753906 441.53125 526.625 C 442.183594 526.492188 442.839844 526.429688 443.507812 526.429688 C 444.171875 526.429688 444.828125 526.492188 445.480469 526.625 C 446.132812 526.753906 446.761719 526.945312 447.378906 527.199219 C 447.992188 527.453125 448.574219 527.765625 449.125 528.132812 C 449.679688 528.503906 450.191406 528.921875 450.660156 529.390625 C 451.128906 529.863281 451.546875 530.371094 451.917969 530.925781 C 452.285156 531.476562 452.597656 532.058594 452.851562 532.675781 C 453.105469 533.289062 453.296875 533.921875 453.429688 534.570312 C 453.558594 535.222656 453.621094 535.882812 453.621094 536.546875 L 453.621094 670.871094 L 636.652344 670.871094 L 636.652344 536.546875 C 636.652344 535.882812 636.71875 535.222656 636.847656 534.570312 C 636.976562 533.921875 637.167969 533.289062 637.421875 532.675781 C 637.675781 532.058594 637.988281 531.476562 638.359375 530.925781 C 638.726562 530.371094 639.144531 529.863281 639.617188 529.390625 C 640.085938 528.921875 640.597656 528.503906 641.148438 528.132812 C 641.699219 527.765625 642.285156 527.453125 642.898438 527.199219 C 643.511719 526.945312 644.144531 526.753906 644.796875 526.625 C 645.445312 526.492188 646.105469 526.429688 646.769531 526.429688 C 647.433594 526.429688 648.089844 526.492188 648.742188 526.625 C 649.394531 526.753906 650.027344 526.945312 650.640625 527.199219 C 651.253906 527.453125 651.835938 527.765625 652.390625 528.132812 C 652.941406 528.503906 653.453125 528.921875 653.921875 529.390625 C 654.390625 529.863281 654.8125 530.371094 655.179688 530.925781 C 655.550781 531.476562 655.859375 532.058594 656.117188 532.675781 C 656.371094 533.289062 656.5625 533.921875 656.691406 534.570312 C 656.820312 535.222656 656.886719 535.882812 656.886719 536.546875 L 656.886719 680.988281 C 656.886719 681.652344 656.820312 682.308594 656.691406 682.960938 C 656.5625 683.613281 656.371094 684.246094 656.117188 684.859375 C 655.859375 685.472656 655.550781 686.054688 655.179688 686.609375 C 654.8125 687.160156 654.390625 687.671875 653.921875 688.140625 C 653.453125 688.613281 652.941406 689.03125 652.390625 689.398438 C 651.835938 689.769531 651.253906 690.082031 650.640625 690.335938 C 650.027344 690.589844 649.394531 690.78125 648.742188 690.910156 C 648.089844 691.039062 647.433594 691.105469 646.769531 691.105469 Z M 646.769531 691.105469 " fill-opacity="1" fill-rule="nonzero"/></g><g clip-path="url(#cd09a3517f)"><path fill="#a87b05" d="M 669.125 546.664062 L 576.632812 546.664062 C 575.96875 546.664062 575.308594 546.597656 574.660156 546.46875 C 574.007812 546.339844 573.375 546.144531 572.761719 545.890625 C 572.148438 545.636719 571.5625 545.328125 571.011719 544.957031 C 570.460938 544.589844 569.949219 544.167969 569.480469 543.699219 C 569.007812 543.230469 568.589844 542.71875 568.222656 542.167969 C 567.851562 541.613281 567.539062 541.03125 567.285156 540.417969 C 567.03125 539.804688 566.839844 539.171875 566.710938 538.519531 C 566.582031 537.867188 566.515625 537.210938 566.515625 536.546875 C 566.515625 535.882812 566.582031 535.222656 566.710938 534.570312 C 566.839844 533.921875 567.03125 533.289062 567.285156 532.675781 C 567.539062 532.058594 567.851562 531.476562 568.222656 530.925781 C 568.589844 530.371094 569.007812 529.863281 569.480469 529.390625 C 569.949219 528.921875 570.460938 528.503906 571.011719 528.132812 C 571.5625 527.765625 572.148438 527.453125 572.761719 527.199219 C 573.375 526.945312 574.007812 526.753906 574.660156 526.625 C 575.308594 526.492188 575.96875 526.429688 576.632812 526.429688 L 659.011719 526.429688 L 659.011719 488.773438 L 431.273438 488.773438 L 431.273438 526.421875 L 513.648438 526.421875 C 514.3125 526.421875 514.972656 526.488281 515.625 526.617188 C 516.273438 526.746094 516.90625 526.9375 517.519531 527.191406 C 518.136719 527.445312 518.71875 527.757812 519.269531 528.125 C 519.824219 528.496094 520.332031 528.914062 520.804688 529.386719 C 521.273438 529.855469 521.691406 530.367188 522.0625 530.917969 C 522.429688 531.46875 522.742188 532.054688 522.996094 532.667969 C 523.25 533.28125 523.441406 533.914062 523.570312 534.566406 C 523.703125 535.214844 523.765625 535.875 523.765625 536.539062 C 523.765625 537.203125 523.703125 537.859375 523.570312 538.511719 C 523.441406 539.164062 523.25 539.796875 522.996094 540.410156 C 522.742188 541.023438 522.429688 541.605469 522.0625 542.160156 C 521.691406 542.710938 521.273438 543.222656 520.804688 543.691406 C 520.332031 544.160156 519.824219 544.582031 519.269531 544.949219 C 518.71875 545.320312 518.136719 545.628906 517.519531 545.886719 C 516.90625 546.140625 516.273438 546.332031 515.625 546.460938 C 514.972656 546.589844 514.3125 546.65625 513.648438 546.65625 L 421.15625 546.65625 C 420.492188 546.65625 419.832031 546.589844 419.183594 546.460938 C 418.53125 546.332031 417.898438 546.140625 417.285156 545.886719 C 416.671875 545.628906 416.085938 545.320312 415.535156 544.949219 C 414.984375 544.582031 414.472656 544.160156 414.003906 543.691406 C 413.53125 543.222656 413.113281 542.710938 412.742188 542.160156 C 412.375 541.605469 412.0625 541.023438 411.808594 540.410156 C 411.554688 539.796875 411.363281 539.164062 411.234375 538.511719 C 411.105469 537.859375 411.039062 537.203125 411.039062 536.539062 L 411.039062 478.65625 C 411.039062 477.992188 411.105469 477.335938 411.234375 476.683594 C 411.363281 476.03125 411.554688 475.398438 411.808594 474.785156 C 412.0625 474.171875 412.375 473.589844 412.742188 473.035156 C 413.113281 472.484375 413.53125 471.972656 414.003906 471.503906 C 414.472656 471.035156 414.984375 470.613281 415.535156 470.246094 C 416.085938 469.875 416.671875 469.566406 417.285156 469.3125 C 417.898438 469.058594 418.53125 468.863281 419.183594 468.734375 C 419.832031 468.605469 420.492188 468.539062 421.15625 468.539062 L 669.125 468.539062 C 669.789062 468.539062 670.449219 468.605469 671.101562 468.734375 C 671.75 468.863281 672.382812 469.058594 672.996094 469.3125 C 673.613281 469.566406 674.195312 469.875 674.746094 470.246094 C 675.300781 470.613281 675.808594 471.035156 676.28125 471.503906 C 676.75 471.972656 677.167969 472.484375 677.539062 473.035156 C 677.90625 473.589844 678.21875 474.171875 678.472656 474.785156 C 678.726562 475.398438 678.917969 476.03125 679.050781 476.683594 C 679.179688 477.335938 679.242188 477.992188 679.242188 478.65625 L 679.242188 536.539062 C 679.242188 537.203125 679.179688 537.859375 679.050781 538.511719 C 678.921875 539.164062 678.730469 539.796875 678.476562 540.410156 C 678.222656 541.027344 677.910156 541.609375 677.539062 542.164062 C 677.171875 542.714844 676.753906 543.226562 676.28125 543.695312 C 675.8125 544.167969 675.300781 544.585938 674.75 544.957031 C 674.195312 545.324219 673.613281 545.636719 673 545.890625 C 672.386719 546.144531 671.753906 546.339844 671.101562 546.46875 C 670.449219 546.597656 669.792969 546.664062 669.125 546.664062 Z M 669.125 546.664062 " fill-opacity="1" fill-rule="nonzero"/></g><g clip-path="url(#49f65d33f9)"><path fill="#a87b05" d="M 513.628906 691.105469 C 512.964844 691.105469 512.304688 691.039062 511.65625 690.910156 C 511.003906 690.78125 510.371094 690.589844 509.757812 690.335938 C 509.144531 690.082031 508.558594 689.769531 508.007812 689.398438 C 507.457031 689.03125 506.945312 688.613281 506.472656 688.140625 C 506.003906 687.671875 505.585938 687.160156 505.214844 686.609375 C 504.847656 686.054688 504.535156 685.472656 504.28125 684.859375 C 504.027344 684.246094 503.835938 683.613281 503.707031 682.960938 C 503.578125 682.308594 503.511719 681.652344 503.511719 680.988281 L 503.511719 478.65625 C 503.511719 477.992188 503.578125 477.335938 503.707031 476.683594 C 503.835938 476.03125 504.027344 475.398438 504.28125 474.785156 C 504.535156 474.171875 504.847656 473.589844 505.214844 473.035156 C 505.585938 472.484375 506.003906 471.972656 506.472656 471.503906 C 506.945312 471.035156 507.457031 470.613281 508.007812 470.246094 C 508.558594 469.875 509.144531 469.566406 509.757812 469.3125 C 510.371094 469.058594 511.003906 468.863281 511.65625 468.734375 C 512.304688 468.605469 512.964844 468.539062 513.628906 468.539062 C 514.292969 468.539062 514.949219 468.605469 515.601562 468.734375 C 516.253906 468.863281 516.886719 469.058594 517.5 469.3125 C 518.113281 469.566406 518.695312 469.875 519.25 470.246094 C 519.800781 470.613281 520.3125 471.035156 520.78125 471.503906 C 521.25 471.972656 521.671875 472.484375 522.039062 473.035156 C 522.410156 473.589844 522.71875 474.171875 522.972656 474.785156 C 523.230469 475.398438 523.421875 476.03125 523.550781 476.683594 C 523.679688 477.335938 523.746094 477.992188 523.746094 478.65625 L 523.746094 680.988281 C 523.746094 681.652344 523.679688 682.308594 523.550781 682.960938 C 523.421875 683.613281 523.230469 684.246094 522.972656 684.859375 C 522.71875 685.472656 522.410156 686.054688 522.039062 686.609375 C 521.671875 687.160156 521.25 687.671875 520.78125 688.140625 C 520.3125 688.613281 519.800781 689.03125 519.25 689.398438 C 518.695312 689.769531 518.113281 690.082031 517.5 690.335938 C 516.886719 690.589844 516.253906 690.78125 515.601562 690.910156 C 514.949219 691.039062 514.292969 691.105469 513.628906 691.105469 Z M 513.628906 691.105469 " fill-opacity="1" fill-rule="nonzero"/></g><g clip-path="url(#b35a1e99d0)"><path fill="#a87b05" d="M 576.648438 691.105469 C 575.984375 691.105469 575.324219 691.039062 574.671875 690.910156 C 574.023438 690.78125 573.390625 690.589844 572.777344 690.335938 C 572.160156 690.082031 571.578125 689.769531 571.027344 689.398438 C 570.472656 689.03125 569.964844 688.613281 569.492188 688.140625 C 569.023438 687.671875 568.605469 687.160156 568.234375 686.609375 C 567.867188 686.054688 567.554688 685.472656 567.300781 684.859375 C 567.046875 684.246094 566.855469 683.613281 566.726562 682.960938 C 566.59375 682.308594 566.53125 681.652344 566.53125 680.988281 L 566.53125 478.65625 C 566.53125 477.992188 566.59375 477.335938 566.726562 476.683594 C 566.855469 476.03125 567.046875 475.398438 567.300781 474.785156 C 567.554688 474.171875 567.867188 473.589844 568.234375 473.035156 C 568.605469 472.484375 569.023438 471.972656 569.492188 471.503906 C 569.964844 471.035156 570.472656 470.613281 571.027344 470.246094 C 571.578125 469.875 572.160156 469.566406 572.777344 469.3125 C 573.390625 469.058594 574.023438 468.863281 574.671875 468.734375 C 575.324219 468.605469 575.984375 468.539062 576.648438 468.539062 C 577.3125 468.539062 577.96875 468.605469 578.621094 468.734375 C 579.273438 468.863281 579.90625 469.058594 580.519531 469.3125 C 581.132812 469.566406 581.714844 469.875 582.265625 470.246094 C 582.820312 470.613281 583.332031 471.035156 583.800781 471.503906 C 584.269531 471.972656 584.691406 472.484375 585.058594 473.035156 C 585.425781 473.589844 585.738281 474.171875 585.992188 474.785156 C 586.246094 475.398438 586.441406 476.03125 586.570312 476.683594 C 586.699219 477.335938 586.761719 477.992188 586.761719 478.65625 L 586.761719 680.988281 C 586.761719 681.652344 586.699219 682.308594 586.570312 682.960938 C 586.441406 683.613281 586.246094 684.246094 585.992188 684.859375 C 585.738281 685.472656 585.425781 686.054688 585.058594 686.609375 C 584.691406 687.160156 584.269531 687.671875 583.800781 688.140625 C 583.332031 688.613281 582.820312 689.03125 582.265625 689.398438 C 581.714844 689.769531 581.132812 690.082031 580.519531 690.335938 C 579.90625 690.589844 579.273438 690.78125 578.621094 690.910156 C 577.96875 691.039062 577.3125 691.105469 576.648438 691.105469 Z M 576.648438 691.105469 " fill-opacity="1" fill-rule="nonzero"/></g><path fill="#a87b05" d="M 552.683594 488.773438 C 552.109375 488.773438 551.539062 488.726562 550.972656 488.625 C 550.40625 488.527344 549.851562 488.382812 549.308594 488.191406 C 548.765625 488 548.242188 487.761719 547.742188 487.480469 C 547.238281 487.199219 546.765625 486.878906 546.316406 486.515625 C 545.871094 486.152344 545.457031 485.753906 545.078125 485.324219 C 544.699219 484.890625 544.359375 484.429688 544.058594 483.9375 C 543.761719 483.445312 543.503906 482.933594 543.289062 482.398438 C 543.078125 481.863281 542.910156 481.316406 542.792969 480.753906 C 539.835938 466.742188 531.894531 442.246094 523.144531 436.144531 C 512.304688 428.609375 498.335938 429.035156 492.613281 437.085938 C 489.796875 441.050781 489.832031 445.503906 490.359375 448.546875 C 491.480469 455 495.722656 461.207031 501.992188 465.570312 C 503.28125 466.46875 505.824219 467.738281 510.664062 468.765625 C 511.324219 468.890625 511.96875 469.078125 512.589844 469.332031 C 513.214844 469.585938 513.804688 469.898438 514.367188 470.269531 C 514.925781 470.640625 515.445312 471.0625 515.921875 471.539062 C 516.398438 472.011719 516.824219 472.527344 517.199219 473.089844 C 517.570312 473.648438 517.886719 474.238281 518.140625 474.859375 C 518.394531 475.484375 518.585938 476.125 518.714844 476.785156 C 518.84375 477.445312 518.90625 478.109375 518.898438 478.78125 C 518.894531 479.457031 518.824219 480.121094 518.683594 480.777344 C 518.546875 481.4375 518.34375 482.074219 518.078125 482.691406 C 517.816406 483.3125 517.492188 483.898438 517.109375 484.449219 C 516.726562 485.003906 516.292969 485.515625 515.8125 485.980469 C 515.328125 486.449219 514.800781 486.863281 514.234375 487.226562 C 513.667969 487.589844 513.074219 487.890625 512.445312 488.136719 C 511.820312 488.378906 511.175781 488.558594 510.511719 488.671875 C 509.847656 488.789062 509.179688 488.835938 508.507812 488.816406 C 507.835938 488.800781 507.171875 488.714844 506.515625 488.5625 C 499.855469 487.167969 494.585938 485.082031 490.417969 482.175781 C 479.753906 474.742188 472.460938 463.75 470.414062 452.015625 C 468.738281 442.359375 470.761719 432.894531 476.117188 425.359375 C 488.335938 408.167969 514.617188 405.558594 534.699219 419.578125 C 552.394531 431.910156 561.03125 469.257812 562.585938 476.613281 C 562.722656 477.261719 562.792969 477.917969 562.800781 478.582031 C 562.808594 479.25 562.753906 479.90625 562.632812 480.558594 C 562.507812 481.214844 562.324219 481.847656 562.078125 482.464844 C 561.828125 483.082031 561.523438 483.667969 561.164062 484.222656 C 560.800781 484.78125 560.386719 485.296875 559.921875 485.773438 C 559.457031 486.246094 558.953125 486.671875 558.402344 487.046875 C 557.855469 487.421875 557.277344 487.742188 556.664062 488.003906 C 556.054688 488.265625 555.421875 488.464844 554.773438 488.601562 C 554.082031 488.730469 553.386719 488.789062 552.683594 488.773438 Z M 552.683594 488.773438 " fill-opacity="1" fill-rule="nonzero"/><path fill="#a87b05" d="M 576.640625 489.496094 C 575.996094 489.496094 575.359375 489.4375 574.726562 489.316406 C 574.097656 489.195312 573.480469 489.015625 572.882812 488.777344 C 572.289062 488.542969 571.71875 488.25 571.175781 487.902344 C 570.632812 487.554688 570.128906 487.164062 569.664062 486.71875 C 569.199219 486.277344 568.777344 485.792969 568.402344 485.273438 C 568.027344 484.75 567.707031 484.195312 567.4375 483.613281 C 567.167969 483.027344 566.957031 482.425781 566.804688 481.800781 C 566.648438 481.175781 566.554688 480.542969 566.523438 479.898438 C 566.445312 480.550781 566.300781 481.1875 566.097656 481.8125 C 565.894531 482.4375 565.632812 483.035156 565.3125 483.609375 C 564.992188 484.179688 564.621094 484.71875 564.195312 485.21875 C 563.773438 485.71875 563.304688 486.171875 562.789062 486.582031 C 562.277344 486.992188 561.730469 487.347656 561.148438 487.652344 C 560.566406 487.953125 559.960938 488.195312 559.328125 488.382812 C 558.699219 488.566406 558.058594 488.6875 557.40625 488.75 C 556.75 488.808594 556.097656 488.804688 555.445312 488.738281 C 552.953125 488.476562 551.421875 488.261719 551.253906 488.238281 C 550.570312 488.140625 549.90625 487.972656 549.257812 487.738281 C 548.609375 487.503906 547.992188 487.207031 547.40625 486.847656 C 546.820312 486.484375 546.273438 486.070312 545.773438 485.597656 C 545.269531 485.125 544.820312 484.605469 544.425781 484.042969 C 544.027344 483.476562 543.691406 482.878906 543.417969 482.246094 C 543.144531 481.613281 542.9375 480.960938 542.796875 480.285156 C 542.65625 479.609375 542.585938 478.929688 542.585938 478.238281 C 542.585938 477.550781 542.652344 476.867188 542.792969 476.191406 C 544.019531 470.222656 550.871094 439.941406 565.765625 429.570312 C 582.601562 417.84375 604.714844 420.175781 615.054688 434.6875 C 616.191406 436.320312 617.160156 438.046875 617.953125 439.871094 C 618.75 441.699219 619.355469 443.582031 619.773438 445.53125 C 620.191406 447.476562 620.414062 449.445312 620.4375 451.433594 C 620.464844 453.425781 620.292969 455.398438 619.925781 457.355469 C 618.210938 467.203125 612.121094 476.402344 603.21875 482.601562 C 598.882812 485.617188 593.203125 487.601562 585.832031 488.679688 C 582.933594 489.097656 580.027344 489.371094 577.101562 489.496094 Z M 564.542969 472.523438 C 565.808594 474.179688 566.492188 476.046875 566.601562 478.128906 C 566.675781 477.542969 566.796875 476.964844 566.972656 476.398438 C 567.148438 475.832031 567.367188 475.285156 567.636719 474.757812 C 567.910156 474.230469 568.222656 473.730469 568.582031 473.257812 C 568.9375 472.785156 569.335938 472.347656 569.769531 471.945312 C 570.203125 471.542969 570.671875 471.183594 571.167969 470.863281 C 571.667969 470.542969 572.1875 470.265625 572.734375 470.039062 C 573.28125 469.808594 573.84375 469.628906 574.421875 469.5 C 575 469.371094 575.585938 469.289062 576.175781 469.261719 C 578.429688 469.175781 580.671875 468.972656 582.90625 468.65625 C 588.542969 467.832031 590.902344 466.488281 591.664062 465.988281 C 596.101562 462.90625 599.214844 458.375 599.996094 453.886719 C 600.265625 452.59375 600.277344 451.296875 600.027344 449.996094 C 599.773438 448.699219 599.28125 447.5 598.550781 446.398438 C 594.675781 440.953125 584.949219 440.851562 577.3125 446.167969 C 572.46875 449.566406 567.507812 461.949219 564.542969 472.523438 Z M 564.542969 472.523438 " fill-opacity="1" fill-rule="nonzero"/><g clip-path="url(#dc98d047e2)"><path fill="#a87b05" d="M 443.507812 663.304688 L 114.261719 663.304688 C 113.425781 663.304688 112.59375 663.265625 111.757812 663.183594 C 110.925781 663.101562 110.101562 662.980469 109.28125 662.816406 C 108.460938 662.65625 107.648438 662.453125 106.847656 662.210938 C 106.046875 661.96875 105.261719 661.6875 104.488281 661.367188 C 103.714844 661.046875 102.960938 660.691406 102.222656 660.296875 C 101.484375 659.90625 100.769531 659.476562 100.070312 659.011719 C 99.375 658.546875 98.703125 658.050781 98.058594 657.523438 C 97.410156 656.992188 96.789062 656.433594 96.199219 655.839844 C 95.605469 655.25 95.042969 654.632812 94.511719 653.988281 C 93.980469 653.339844 93.480469 652.671875 93.015625 651.976562 C 92.550781 651.28125 92.121094 650.566406 91.722656 649.828125 C 91.328125 649.09375 90.96875 648.339844 90.648438 647.566406 C 90.328125 646.792969 90.042969 646.007812 89.800781 645.207031 C 89.554688 644.410156 89.351562 643.597656 89.183594 642.777344 C 89.019531 641.957031 88.894531 641.132812 88.8125 640.300781 C 88.726562 639.46875 88.683594 638.632812 88.683594 637.796875 L 88.683594 102.402344 C 88.683594 101.566406 88.726562 100.730469 88.8125 99.898438 C 88.894531 99.066406 89.019531 98.238281 89.183594 97.417969 C 89.347656 96.597656 89.554688 95.789062 89.796875 94.988281 C 90.042969 94.1875 90.324219 93.402344 90.644531 92.628906 C 90.96875 91.859375 91.328125 91.105469 91.722656 90.367188 C 92.117188 89.628906 92.546875 88.914062 93.015625 88.21875 C 93.480469 87.523438 93.976562 86.855469 94.511719 86.207031 C 95.042969 85.5625 95.601562 84.945312 96.195312 84.351562 C 96.789062 83.761719 97.40625 83.203125 98.054688 82.671875 C 98.703125 82.140625 99.375 81.644531 100.070312 81.179688 C 100.765625 80.71875 101.484375 80.289062 102.21875 79.894531 C 102.957031 79.5 103.714844 79.144531 104.488281 78.824219 C 105.261719 78.503906 106.046875 78.222656 106.847656 77.980469 C 107.648438 77.738281 108.460938 77.539062 109.28125 77.375 C 110.101562 77.210938 110.925781 77.089844 111.757812 77.007812 C 112.589844 76.925781 113.425781 76.886719 114.261719 76.886719 L 529.675781 76.886719 C 530.515625 76.886719 531.347656 76.925781 532.179688 77.007812 C 533.011719 77.089844 533.839844 77.210938 534.660156 77.375 C 535.480469 77.539062 536.292969 77.738281 537.09375 77.980469 C 537.894531 78.222656 538.679688 78.503906 539.453125 78.824219 C 540.226562 79.144531 540.980469 79.5 541.71875 79.894531 C 542.457031 80.289062 543.175781 80.71875 543.871094 81.179688 C 544.566406 81.644531 545.238281 82.140625 545.886719 82.671875 C 546.53125 83.203125 547.152344 83.761719 547.746094 84.351562 C 548.335938 84.945312 548.898438 85.5625 549.429688 86.207031 C 549.960938 86.855469 550.460938 87.523438 550.925781 88.21875 C 551.390625 88.914062 551.824219 89.628906 552.21875 90.367188 C 552.613281 91.105469 552.972656 91.859375 553.292969 92.628906 C 553.617188 93.402344 553.898438 94.1875 554.140625 94.988281 C 554.386719 95.789062 554.589844 96.597656 554.757812 97.417969 C 554.921875 98.238281 555.046875 99.066406 555.128906 99.898438 C 555.214844 100.730469 555.253906 101.566406 555.257812 102.402344 L 555.257812 453.257812 C 555.257812 453.921875 555.191406 454.578125 555.0625 455.230469 C 554.933594 455.882812 554.742188 456.515625 554.488281 457.128906 C 554.234375 457.742188 553.921875 458.324219 553.550781 458.878906 C 553.183594 459.429688 552.765625 459.941406 552.292969 460.410156 C 551.824219 460.878906 551.3125 461.300781 550.761719 461.667969 C 550.210938 462.039062 549.625 462.351562 549.011719 462.605469 C 548.398438 462.859375 547.765625 463.050781 547.113281 463.179688 C 546.464844 463.308594 545.804688 463.375 545.140625 463.375 C 544.476562 463.375 543.820312 463.308594 543.167969 463.179688 C 542.515625 463.050781 541.882812 462.859375 541.269531 462.605469 C 540.65625 462.351562 540.074219 462.039062 539.519531 461.667969 C 538.96875 461.300781 538.457031 460.878906 537.988281 460.410156 C 537.519531 459.941406 537.097656 459.429688 536.730469 458.878906 C 536.359375 458.324219 536.046875 457.742188 535.792969 457.128906 C 535.539062 456.515625 535.347656 455.882812 535.21875 455.230469 C 535.089844 454.578125 535.023438 453.921875 535.023438 453.257812 L 535.023438 102.402344 C 535.019531 102.054688 534.976562 101.710938 534.902344 101.371094 C 534.832031 101.03125 534.726562 100.699219 534.585938 100.382812 C 534.449219 100.0625 534.285156 99.757812 534.089844 99.472656 C 533.890625 99.183594 533.671875 98.917969 533.421875 98.675781 C 533.175781 98.429688 532.90625 98.210938 532.617188 98.019531 C 532.328125 97.828125 532.023438 97.664062 531.703125 97.53125 C 531.382812 97.398438 531.050781 97.296875 530.710938 97.226562 C 530.367188 97.15625 530.023438 97.121094 529.675781 97.117188 L 114.261719 97.117188 C 113.914062 97.121094 113.570312 97.15625 113.230469 97.226562 C 112.890625 97.296875 112.558594 97.398438 112.238281 97.53125 C 111.917969 97.664062 111.613281 97.828125 111.320312 98.019531 C 111.03125 98.210938 110.765625 98.429688 110.515625 98.675781 C 110.269531 98.917969 110.046875 99.183594 109.851562 99.472656 C 109.65625 99.757812 109.488281 100.0625 109.351562 100.382812 C 109.214844 100.699219 109.109375 101.03125 109.035156 101.371094 C 108.960938 101.710938 108.921875 102.054688 108.914062 102.402344 L 108.914062 637.796875 C 108.921875 638.144531 108.960938 638.488281 109.035156 638.828125 C 109.109375 639.167969 109.214844 639.496094 109.351562 639.816406 C 109.488281 640.136719 109.65625 640.4375 109.851562 640.726562 C 110.046875 641.011719 110.269531 641.277344 110.515625 641.523438 C 110.765625 641.765625 111.03125 641.984375 111.324219 642.175781 C 111.613281 642.367188 111.917969 642.53125 112.238281 642.664062 C 112.558594 642.796875 112.890625 642.898438 113.230469 642.964844 C 113.570312 643.035156 113.914062 643.070312 114.261719 643.074219 L 443.507812 643.074219 C 444.171875 643.074219 444.828125 643.136719 445.480469 643.265625 C 446.132812 643.398438 446.761719 643.589844 447.378906 643.84375 C 447.992188 644.097656 448.574219 644.410156 449.125 644.777344 C 449.679688 645.148438 450.191406 645.566406 450.660156 646.035156 C 451.128906 646.503906 451.546875 647.015625 451.917969 647.570312 C 452.285156 648.121094 452.597656 648.703125 452.851562 649.316406 C 453.105469 649.933594 453.296875 650.5625 453.429688 651.214844 C 453.558594 651.867188 453.621094 652.523438 453.621094 653.191406 C 453.621094 653.855469 453.558594 654.511719 453.429688 655.164062 C 453.296875 655.816406 453.105469 656.445312 452.851562 657.0625 C 452.597656 657.675781 452.285156 658.257812 451.917969 658.808594 C 451.546875 659.363281 451.128906 659.875 450.660156 660.34375 C 450.191406 660.8125 449.679688 661.230469 449.125 661.601562 C 448.574219 661.96875 447.992188 662.28125 447.378906 662.535156 C 446.761719 662.789062 446.132812 662.980469 445.480469 663.113281 C 444.828125 663.242188 444.171875 663.304688 443.507812 663.304688 Z M 443.507812 663.304688 " fill-opacity="1" fill-rule="nonzero"/></g><path fill="#a87b05" d="M 228.191406 272.980469 L 167.683594 272.980469 C 166.824219 272.980469 165.964844 272.9375 165.109375 272.851562 C 164.253906 272.765625 163.402344 272.640625 162.558594 272.472656 C 161.714844 272.300781 160.878906 272.09375 160.054688 271.84375 C 159.234375 271.59375 158.421875 271.300781 157.628906 270.972656 C 156.832031 270.644531 156.054688 270.277344 155.296875 269.871094 C 154.539062 269.464844 153.800781 269.023438 153.082031 268.542969 C 152.367188 268.066406 151.675781 267.554688 151.011719 267.007812 C 150.347656 266.460938 149.707031 265.882812 149.101562 265.277344 C 148.492188 264.667969 147.914062 264.03125 147.367188 263.367188 C 146.820312 262.703125 146.308594 262.011719 145.828125 261.296875 C 145.347656 260.582031 144.90625 259.84375 144.5 259.085938 C 144.09375 258.324219 143.722656 257.550781 143.394531 256.753906 C 143.0625 255.960938 142.773438 255.152344 142.519531 254.328125 C 142.269531 253.503906 142.058594 252.671875 141.890625 251.824219 C 141.722656 250.980469 141.59375 250.132812 141.507812 249.273438 C 141.421875 248.417969 141.378906 247.558594 141.375 246.699219 L 141.375 186.554688 C 141.375 185.695312 141.417969 184.835938 141.503906 183.976562 C 141.589844 183.121094 141.714844 182.269531 141.886719 181.425781 C 142.054688 180.582031 142.265625 179.746094 142.515625 178.921875 C 142.765625 178.097656 143.054688 177.289062 143.386719 176.492188 C 143.714844 175.695312 144.082031 174.917969 144.492188 174.160156 C 144.898438 173.398438 145.339844 172.664062 145.816406 171.945312 C 146.296875 171.230469 146.808594 170.539062 147.355469 169.875 C 147.902344 169.207031 148.480469 168.570312 149.089844 167.960938 C 149.699219 167.351562 150.335938 166.773438 151.003906 166.226562 C 151.667969 165.679688 152.359375 165.167969 153.074219 164.6875 C 153.792969 164.210938 154.527344 163.769531 155.289062 163.359375 C 156.046875 162.953125 156.824219 162.585938 157.621094 162.257812 C 158.417969 161.925781 159.226562 161.636719 160.050781 161.386719 C 160.875 161.136719 161.710938 160.925781 162.554688 160.757812 C 163.398438 160.585938 164.25 160.460938 165.105469 160.375 C 165.964844 160.289062 166.824219 160.246094 167.683594 160.246094 L 228.191406 160.246094 C 229.050781 160.246094 229.910156 160.289062 230.765625 160.375 C 231.625 160.460938 232.476562 160.589844 233.320312 160.757812 C 234.164062 160.925781 235 161.136719 235.824219 161.386719 C 236.648438 161.636719 237.457031 161.929688 238.253906 162.257812 C 239.046875 162.589844 239.824219 162.957031 240.585938 163.363281 C 241.34375 163.769531 242.082031 164.210938 242.796875 164.691406 C 243.515625 165.171875 244.207031 165.683594 244.871094 166.230469 C 245.535156 166.777344 246.175781 167.355469 246.78125 167.960938 C 247.390625 168.570312 247.96875 169.210938 248.515625 169.875 C 249.0625 170.539062 249.574219 171.230469 250.054688 171.949219 C 250.535156 172.664062 250.976562 173.402344 251.382812 174.160156 C 251.789062 174.921875 252.15625 175.699219 252.488281 176.492188 C 252.816406 177.289062 253.109375 178.097656 253.359375 178.921875 C 253.609375 179.746094 253.820312 180.582031 253.988281 181.425781 C 254.15625 182.269531 254.285156 183.121094 254.371094 183.980469 C 254.457031 184.835938 254.5 185.695312 254.5 186.554688 L 254.5 246.699219 C 254.496094 247.558594 254.453125 248.417969 254.367188 249.273438 C 254.28125 250.132812 254.152344 250.980469 253.984375 251.824219 C 253.816406 252.671875 253.605469 253.503906 253.355469 254.328125 C 253.101562 255.152344 252.8125 255.960938 252.480469 256.753906 C 252.152344 257.550781 251.78125 258.324219 251.375 259.085938 C 250.96875 259.84375 250.527344 260.582031 250.046875 261.296875 C 249.566406 262.011719 249.054688 262.703125 248.507812 263.367188 C 247.960938 264.03125 247.382812 264.667969 246.773438 265.277344 C 246.167969 265.882812 245.527344 266.460938 244.863281 267.007812 C 244.199219 267.554688 243.507812 268.066406 242.789062 268.542969 C 242.074219 269.023438 241.335938 269.464844 240.578125 269.871094 C 239.820312 270.277344 239.042969 270.644531 238.246094 270.972656 C 237.453125 271.300781 236.640625 271.59375 235.820312 271.84375 C 234.996094 272.09375 234.160156 272.300781 233.316406 272.472656 C 232.472656 272.640625 231.621094 272.765625 230.765625 272.851562 C 229.910156 272.9375 229.050781 272.980469 228.191406 272.980469 Z M 167.683594 180.488281 C 167.289062 180.492188 166.894531 180.535156 166.503906 180.617188 C 166.117188 180.699219 165.738281 180.816406 165.371094 180.96875 C 165.003906 181.125 164.65625 181.3125 164.328125 181.535156 C 163.996094 181.757812 163.691406 182.007812 163.410156 182.289062 C 163.128906 182.570312 162.878906 182.875 162.65625 183.207031 C 162.433594 183.535156 162.246094 183.882812 162.089844 184.25 C 161.9375 184.617188 161.820312 184.996094 161.738281 185.382812 C 161.65625 185.773438 161.613281 186.164062 161.609375 186.5625 L 161.609375 246.699219 C 161.613281 247.097656 161.65625 247.492188 161.738281 247.878906 C 161.820312 248.269531 161.9375 248.644531 162.089844 249.011719 C 162.246094 249.378906 162.433594 249.726562 162.65625 250.058594 C 162.878906 250.386719 163.128906 250.691406 163.410156 250.972656 C 163.691406 251.253906 163.996094 251.507812 164.328125 251.726562 C 164.65625 251.949219 165.003906 252.136719 165.371094 252.292969 C 165.738281 252.449219 166.117188 252.566406 166.503906 252.648438 C 166.894531 252.726562 167.289062 252.769531 167.683594 252.777344 L 228.191406 252.777344 C 228.585938 252.769531 228.980469 252.726562 229.371094 252.648438 C 229.757812 252.566406 230.136719 252.449219 230.503906 252.292969 C 230.871094 252.136719 231.21875 251.949219 231.546875 251.726562 C 231.878906 251.507812 232.183594 251.253906 232.464844 250.972656 C 232.746094 250.691406 232.996094 250.386719 233.21875 250.058594 C 233.441406 249.726562 233.628906 249.378906 233.785156 249.011719 C 233.9375 248.644531 234.054688 248.269531 234.136719 247.878906 C 234.21875 247.488281 234.261719 247.097656 234.265625 246.699219 L 234.265625 186.554688 C 234.261719 186.160156 234.21875 185.765625 234.136719 185.375 C 234.054688 184.988281 233.9375 184.609375 233.785156 184.242188 C 233.628906 183.875 233.441406 183.527344 233.21875 183.199219 C 232.996094 182.867188 232.746094 182.5625 232.464844 182.28125 C 232.183594 182 231.878906 181.75 231.546875 181.527344 C 231.21875 181.304688 230.871094 181.117188 230.503906 180.960938 C 230.136719 180.808594 229.757812 180.691406 229.371094 180.609375 C 228.980469 180.527344 228.585938 180.484375 228.191406 180.480469 Z M 167.683594 180.488281 " fill-opacity="1" fill-rule="nonzero"/><path fill="#a87b05" d="M 190.621094 238.597656 C 189.28125 238.597656 187.996094 238.34375 186.757812 237.832031 C 185.523438 237.320312 184.429688 236.59375 183.480469 235.652344 L 174.28125 226.464844 C 173.796875 226 173.359375 225.492188 172.976562 224.941406 C 172.589844 224.390625 172.265625 223.804688 171.996094 223.1875 C 171.730469 222.570312 171.523438 221.933594 171.382812 221.273438 C 171.242188 220.617188 171.167969 219.953125 171.160156 219.28125 C 171.152344 218.605469 171.210938 217.941406 171.335938 217.277344 C 171.460938 216.617188 171.648438 215.976562 171.902344 215.351562 C 172.152344 214.730469 172.464844 214.136719 172.835938 213.574219 C 173.207031 213.015625 173.632812 212.496094 174.105469 212.019531 C 174.582031 211.542969 175.097656 211.117188 175.65625 210.742188 C 176.214844 210.367188 176.808594 210.054688 177.429688 209.796875 C 178.050781 209.542969 178.691406 209.351562 179.355469 209.222656 C 180.015625 209.09375 180.679688 209.035156 181.351562 209.039062 C 182.027344 209.042969 182.691406 209.117188 183.351562 209.253906 C 184.007812 209.390625 184.648438 209.59375 185.265625 209.859375 C 185.882812 210.125 186.46875 210.449219 187.023438 210.832031 C 187.578125 211.210938 188.085938 211.644531 188.554688 212.128906 L 190.621094 214.183594 L 207.3125 197.5625 C 207.785156 197.09375 208.296875 196.671875 208.847656 196.304688 C 209.402344 195.9375 209.984375 195.625 210.601562 195.371094 C 211.214844 195.117188 211.847656 194.929688 212.5 194.800781 C 213.152344 194.671875 213.808594 194.605469 214.476562 194.609375 C 215.140625 194.609375 215.796875 194.675781 216.449219 194.804688 C 217.101562 194.9375 217.734375 195.128906 218.347656 195.386719 C 218.960938 195.640625 219.542969 195.953125 220.09375 196.324219 C 220.648438 196.695312 221.15625 197.113281 221.625 197.585938 C 222.09375 198.054688 222.511719 198.570312 222.882812 199.121094 C 223.25 199.675781 223.558594 200.257812 223.8125 200.875 C 224.066406 201.488281 224.257812 202.121094 224.386719 202.773438 C 224.511719 203.425781 224.578125 204.085938 224.574219 204.75 C 224.574219 205.414062 224.507812 206.070312 224.375 206.722656 C 224.246094 207.375 224.050781 208.007812 223.792969 208.621094 C 223.539062 209.234375 223.226562 209.816406 222.855469 210.367188 C 222.484375 210.917969 222.0625 211.429688 221.59375 211.898438 L 197.746094 235.636719 C 196.800781 236.582031 195.710938 237.308594 194.476562 237.824219 C 193.242188 238.335938 191.957031 238.59375 190.621094 238.597656 Z M 190.621094 238.597656 " fill-opacity="1" fill-rule="nonzero"/><path fill="#a87b05" d="M 492.449219 226.734375 L 296.152344 226.734375 C 295.488281 226.734375 294.828125 226.667969 294.175781 226.539062 C 293.527344 226.410156 292.894531 226.21875 292.28125 225.964844 C 291.664062 225.710938 291.082031 225.398438 290.53125 225.027344 C 289.976562 224.660156 289.46875 224.238281 288.996094 223.769531 C 288.527344 223.300781 288.109375 222.789062 287.738281 222.238281 C 287.371094 221.683594 287.058594 221.101562 286.804688 220.488281 C 286.550781 219.875 286.359375 219.242188 286.230469 218.589844 C 286.097656 217.9375 286.035156 217.28125 286.035156 216.617188 C 286.035156 215.953125 286.097656 215.292969 286.230469 214.644531 C 286.359375 213.992188 286.550781 213.359375 286.804688 212.746094 C 287.058594 212.132812 287.371094 211.546875 287.738281 210.996094 C 288.109375 210.445312 288.527344 209.933594 288.996094 209.464844 C 289.46875 208.992188 289.976562 208.574219 290.53125 208.207031 C 291.082031 207.835938 291.664062 207.523438 292.28125 207.269531 C 292.894531 207.015625 293.527344 206.824219 294.175781 206.695312 C 294.828125 206.566406 295.488281 206.5 296.152344 206.5 L 492.449219 206.5 C 493.113281 206.5 493.769531 206.566406 494.421875 206.695312 C 495.074219 206.824219 495.707031 207.015625 496.320312 207.269531 C 496.933594 207.523438 497.515625 207.835938 498.070312 208.207031 C 498.621094 208.574219 499.132812 208.992188 499.601562 209.464844 C 500.070312 209.933594 500.492188 210.445312 500.859375 210.996094 C 501.230469 211.546875 501.539062 212.132812 501.792969 212.746094 C 502.050781 213.359375 502.242188 213.992188 502.371094 214.644531 C 502.5 215.292969 502.566406 215.953125 502.566406 216.617188 C 502.566406 217.28125 502.5 217.9375 502.371094 218.589844 C 502.242188 219.242188 502.050781 219.875 501.792969 220.488281 C 501.539062 221.101562 501.230469 221.683594 500.859375 222.238281 C 500.492188 222.789062 500.070312 223.300781 499.601562 223.769531 C 499.132812 224.238281 498.621094 224.660156 498.070312 225.027344 C 497.515625 225.398438 496.933594 225.710938 496.320312 225.964844 C 495.707031 226.21875 495.074219 226.410156 494.421875 226.539062 C 493.769531 226.667969 493.113281 226.734375 492.449219 226.734375 Z M 492.449219 226.734375 " fill-opacity="1" fill-rule="nonzero"/><path fill="#a87b05" d="M 228.191406 426.46875 L 167.683594 426.46875 C 166.824219 426.46875 165.964844 426.425781 165.105469 426.339844 C 164.25 426.253906 163.398438 426.128906 162.554688 425.957031 C 161.710938 425.789062 160.875 425.578125 160.050781 425.328125 C 159.226562 425.078125 158.417969 424.789062 157.621094 424.457031 C 156.824219 424.128906 156.046875 423.757812 155.289062 423.351562 C 154.527344 422.945312 153.789062 422.503906 153.074219 422.023438 C 152.359375 421.542969 151.667969 421.03125 151 420.484375 C 150.335938 419.9375 149.699219 419.359375 149.089844 418.75 C 148.480469 418.140625 147.902344 417.503906 147.355469 416.839844 C 146.808594 416.171875 146.296875 415.480469 145.816406 414.765625 C 145.339844 414.046875 144.894531 413.3125 144.488281 412.550781 C 144.082031 411.792969 143.714844 411.015625 143.386719 410.21875 C 143.054688 409.421875 142.765625 408.613281 142.515625 407.789062 C 142.265625 406.964844 142.054688 406.128906 141.886719 405.285156 C 141.714844 404.441406 141.589844 403.589844 141.503906 402.730469 C 141.417969 401.875 141.375 401.015625 141.375 400.152344 L 141.375 340.046875 C 141.375 339.183594 141.417969 338.324219 141.503906 337.46875 C 141.589844 336.609375 141.714844 335.761719 141.886719 334.914062 C 142.054688 334.070312 142.265625 333.234375 142.515625 332.410156 C 142.765625 331.585938 143.054688 330.777344 143.386719 329.980469 C 143.714844 329.1875 144.082031 328.410156 144.492188 327.648438 C 144.898438 326.890625 145.339844 326.152344 145.816406 325.4375 C 146.296875 324.71875 146.808594 324.027344 147.355469 323.363281 C 147.902344 322.695312 148.480469 322.058594 149.089844 321.449219 C 149.699219 320.839844 150.335938 320.261719 151.003906 319.71875 C 151.667969 319.171875 152.359375 318.65625 153.074219 318.179688 C 153.792969 317.699219 154.527344 317.257812 155.289062 316.851562 C 156.046875 316.445312 156.824219 316.078125 157.621094 315.746094 C 158.417969 315.417969 159.226562 315.125 160.050781 314.875 C 160.875 314.625 161.710938 314.414062 162.554688 314.246094 C 163.398438 314.078125 164.25 313.949219 165.105469 313.863281 C 165.964844 313.78125 166.824219 313.738281 167.683594 313.734375 L 228.191406 313.734375 C 229.050781 313.738281 229.910156 313.78125 230.765625 313.863281 C 231.625 313.949219 232.476562 314.078125 233.320312 314.246094 C 234.164062 314.414062 235 314.625 235.824219 314.875 C 236.648438 315.125 237.457031 315.417969 238.253906 315.746094 C 239.050781 316.078125 239.828125 316.445312 240.585938 316.851562 C 241.347656 317.257812 242.082031 317.699219 242.800781 318.179688 C 243.515625 318.65625 244.207031 319.171875 244.871094 319.71875 C 245.539062 320.261719 246.175781 320.839844 246.785156 321.449219 C 247.394531 322.058594 247.972656 322.695312 248.519531 323.363281 C 249.066406 324.027344 249.578125 324.71875 250.058594 325.4375 C 250.535156 326.152344 250.976562 326.890625 251.382812 327.648438 C 251.789062 328.410156 252.160156 329.1875 252.488281 329.980469 C 252.820312 330.777344 253.109375 331.585938 253.359375 332.410156 C 253.609375 333.234375 253.820312 334.070312 253.988281 334.914062 C 254.160156 335.761719 254.285156 336.609375 254.371094 337.46875 C 254.457031 338.324219 254.5 339.183594 254.5 340.046875 L 254.5 400.152344 C 254.5 401.015625 254.457031 401.875 254.371094 402.730469 C 254.285156 403.589844 254.160156 404.441406 253.988281 405.285156 C 253.820312 406.128906 253.609375 406.964844 253.359375 407.789062 C 253.109375 408.613281 252.820312 409.421875 252.488281 410.21875 C 252.160156 411.015625 251.792969 411.792969 251.386719 412.550781 C 250.980469 413.3125 250.535156 414.046875 250.058594 414.765625 C 249.578125 415.480469 249.066406 416.171875 248.519531 416.839844 C 247.972656 417.503906 247.394531 418.140625 246.785156 418.75 C 246.175781 419.359375 245.539062 419.9375 244.875 420.484375 C 244.207031 421.03125 243.515625 421.542969 242.800781 422.023438 C 242.085938 422.503906 241.347656 422.945312 240.585938 423.351562 C 239.828125 423.757812 239.050781 424.128906 238.253906 424.457031 C 237.457031 424.789062 236.648438 425.078125 235.824219 425.328125 C 235 425.578125 234.164062 425.789062 233.320312 425.957031 C 232.476562 426.128906 231.625 426.253906 230.769531 426.339844 C 229.910156 426.425781 229.050781 426.46875 228.191406 426.46875 Z M 167.683594 333.976562 C 167.289062 333.980469 166.894531 334.023438 166.503906 334.105469 C 166.117188 334.1875 165.738281 334.304688 165.371094 334.460938 C 165.003906 334.613281 164.65625 334.800781 164.328125 335.023438 C 163.996094 335.246094 163.691406 335.496094 163.410156 335.777344 C 163.128906 336.058594 162.878906 336.367188 162.65625 336.695312 C 162.433594 337.027344 162.246094 337.375 162.089844 337.738281 C 161.9375 338.105469 161.820312 338.484375 161.738281 338.875 C 161.65625 339.261719 161.613281 339.65625 161.609375 340.054688 L 161.609375 400.160156 C 161.613281 400.558594 161.65625 400.953125 161.738281 401.339844 C 161.820312 401.730469 161.9375 402.109375 162.089844 402.476562 C 162.246094 402.839844 162.433594 403.191406 162.65625 403.519531 C 162.878906 403.851562 163.128906 404.15625 163.410156 404.4375 C 163.691406 404.71875 163.996094 404.96875 164.328125 405.191406 C 164.65625 405.414062 165.003906 405.605469 165.371094 405.757812 C 165.738281 405.914062 166.117188 406.03125 166.503906 406.113281 C 166.894531 406.195312 167.289062 406.238281 167.683594 406.246094 L 228.191406 406.246094 C 228.585938 406.238281 228.980469 406.195312 229.371094 406.113281 C 229.757812 406.03125 230.136719 405.914062 230.503906 405.757812 C 230.871094 405.605469 231.21875 405.414062 231.546875 405.191406 C 231.878906 404.96875 232.183594 404.71875 232.464844 404.4375 C 232.746094 404.15625 232.996094 403.851562 233.21875 403.519531 C 233.441406 403.191406 233.628906 402.839844 233.785156 402.476562 C 233.9375 402.109375 234.054688 401.730469 234.136719 401.339844 C 234.21875 400.953125 234.261719 400.558594 234.265625 400.160156 L 234.265625 340.046875 C 234.261719 339.648438 234.21875 339.253906 234.136719 338.867188 C 234.054688 338.476562 233.9375 338.097656 233.785156 337.734375 C 233.628906 337.367188 233.441406 337.019531 233.21875 336.6875 C 232.996094 336.359375 232.746094 336.054688 232.464844 335.773438 C 232.183594 335.492188 231.878906 335.238281 231.546875 335.015625 C 231.21875 334.796875 230.871094 334.605469 230.503906 334.453125 C 230.136719 334.296875 229.757812 334.179688 229.371094 334.097656 C 228.980469 334.015625 228.585938 333.972656 228.191406 333.96875 Z M 167.683594 333.976562 " fill-opacity="1" fill-rule="nonzero"/><path fill="#a87b05" d="M 190.621094 392.082031 C 189.28125 392.082031 187.996094 391.824219 186.757812 391.316406 C 185.523438 390.804688 184.429688 390.078125 183.480469 389.132812 L 174.28125 379.96875 C 173.796875 379.503906 173.359375 378.996094 172.976562 378.445312 C 172.59375 377.894531 172.265625 377.308594 171.996094 376.691406 C 171.730469 376.074219 171.523438 375.4375 171.382812 374.78125 C 171.242188 374.121094 171.167969 373.457031 171.160156 372.785156 C 171.152344 372.109375 171.210938 371.445312 171.335938 370.78125 C 171.460938 370.121094 171.648438 369.480469 171.902344 368.855469 C 172.15625 368.234375 172.464844 367.640625 172.835938 367.078125 C 173.207031 366.519531 173.632812 366 174.105469 365.523438 C 174.582031 365.046875 175.097656 364.621094 175.65625 364.246094 C 176.214844 363.875 176.808594 363.558594 177.429688 363.304688 C 178.050781 363.046875 178.691406 362.855469 179.355469 362.726562 C 180.015625 362.601562 180.679688 362.539062 181.355469 362.542969 C 182.027344 362.550781 182.691406 362.621094 183.351562 362.757812 C 184.007812 362.894531 184.648438 363.097656 185.265625 363.363281 C 185.882812 363.628906 186.46875 363.953125 187.023438 364.335938 C 187.578125 364.714844 188.085938 365.148438 188.554688 365.632812 L 190.621094 367.691406 L 207.3125 351.074219 C 207.785156 350.605469 208.296875 350.1875 208.847656 349.820312 C 209.402344 349.453125 209.984375 349.144531 210.601562 348.890625 C 211.214844 348.640625 211.847656 348.449219 212.496094 348.324219 C 213.148438 348.195312 213.804688 348.132812 214.46875 348.132812 C 215.132812 348.136719 215.792969 348.203125 216.441406 348.332031 C 217.09375 348.464844 217.722656 348.65625 218.335938 348.914062 C 218.949219 349.167969 219.53125 349.480469 220.082031 349.851562 C 220.632812 350.222656 221.144531 350.640625 221.613281 351.113281 C 222.078125 351.582031 222.496094 352.09375 222.867188 352.644531 C 223.234375 353.199219 223.542969 353.78125 223.796875 354.394531 C 224.050781 355.007812 224.242188 355.640625 224.367188 356.292969 C 224.496094 356.945312 224.5625 357.601562 224.558594 358.265625 C 224.558594 358.929688 224.492188 359.585938 224.363281 360.238281 C 224.234375 360.886719 224.039062 361.519531 223.785156 362.132812 C 223.53125 362.746094 223.21875 363.328125 222.851562 363.878906 C 222.480469 364.429688 222.0625 364.941406 221.59375 365.410156 L 197.746094 389.140625 C 196.800781 390.082031 195.707031 390.804688 194.472656 391.316406 C 193.242188 391.824219 191.957031 392.082031 190.621094 392.082031 Z M 190.621094 392.082031 " fill-opacity="1" fill-rule="nonzero"/><path fill="#a87b05" d="M 492.449219 380.214844 L 296.152344 380.214844 C 295.488281 380.214844 294.828125 380.152344 294.175781 380.023438 C 293.527344 379.890625 292.894531 379.699219 292.28125 379.445312 C 291.664062 379.191406 291.082031 378.878906 290.53125 378.511719 C 289.976562 378.140625 289.46875 377.722656 288.996094 377.253906 C 288.527344 376.785156 288.109375 376.273438 287.738281 375.71875 C 287.371094 375.167969 287.058594 374.585938 286.804688 373.972656 C 286.550781 373.355469 286.359375 372.726562 286.230469 372.074219 C 286.097656 371.421875 286.035156 370.765625 286.035156 370.097656 C 286.035156 369.433594 286.097656 368.777344 286.230469 368.125 C 286.359375 367.472656 286.550781 366.839844 286.804688 366.226562 C 287.058594 365.613281 287.371094 365.03125 287.738281 364.480469 C 288.109375 363.925781 288.527344 363.414062 288.996094 362.945312 C 289.46875 362.476562 289.976562 362.058594 290.53125 361.6875 C 291.082031 361.320312 291.664062 361.007812 292.28125 360.753906 C 292.894531 360.5 293.527344 360.308594 294.175781 360.175781 C 294.828125 360.046875 295.488281 359.984375 296.152344 359.984375 L 492.449219 359.984375 C 493.113281 359.984375 493.769531 360.046875 494.421875 360.175781 C 495.074219 360.308594 495.707031 360.5 496.320312 360.753906 C 496.933594 361.007812 497.515625 361.320312 498.070312 361.6875 C 498.621094 362.058594 499.132812 362.476562 499.601562 362.945312 C 500.070312 363.414062 500.492188 363.925781 500.859375 364.480469 C 501.230469 365.03125 501.539062 365.613281 501.792969 366.226562 C 502.050781 366.839844 502.242188 367.472656 502.371094 368.125 C 502.5 368.777344 502.566406 369.433594 502.566406 370.097656 C 502.566406 370.765625 502.5 371.421875 502.371094 372.074219 C 502.242188 372.726562 502.050781 373.355469 501.792969 373.972656 C 501.539062 374.585938 501.230469 375.167969 500.859375 375.71875 C 500.492188 376.273438 500.070312 376.785156 499.601562 377.253906 C 499.132812 377.722656 498.621094 378.140625 498.070312 378.511719 C 497.515625 378.878906 496.933594 379.191406 496.320312 379.445312 C 495.707031 379.699219 495.074219 379.890625 494.421875 380.023438 C 493.769531 380.152344 493.113281 380.214844 492.449219 380.214844 Z M 492.449219 380.214844 " fill-opacity="1" fill-rule="nonzero"/><path fill="#a87b05" d="M 228.191406 579.953125 L 167.683594 579.953125 C 166.824219 579.953125 165.964844 579.910156 165.105469 579.824219 C 164.25 579.738281 163.398438 579.609375 162.554688 579.441406 C 161.710938 579.273438 160.875 579.0625 160.050781 578.8125 C 159.226562 578.5625 158.417969 578.273438 157.621094 577.941406 C 156.824219 577.613281 156.046875 577.242188 155.289062 576.835938 C 154.527344 576.429688 153.792969 575.988281 153.074219 575.511719 C 152.359375 575.03125 151.667969 574.519531 151.003906 573.972656 C 150.335938 573.425781 149.699219 572.847656 149.089844 572.238281 C 148.480469 571.628906 147.902344 570.992188 147.355469 570.324219 C 146.808594 569.660156 146.296875 568.96875 145.816406 568.253906 C 145.339844 567.535156 144.898438 566.800781 144.492188 566.039062 C 144.082031 565.28125 143.714844 564.503906 143.386719 563.707031 C 143.054688 562.910156 142.765625 562.101562 142.515625 561.277344 C 142.265625 560.453125 142.054688 559.617188 141.886719 558.773438 C 141.714844 557.929688 141.589844 557.078125 141.503906 556.21875 C 141.417969 555.363281 141.375 554.503906 141.375 553.644531 L 141.375 493.527344 C 141.375 492.667969 141.417969 491.808594 141.503906 490.949219 C 141.589844 490.09375 141.714844 489.242188 141.886719 488.398438 C 142.054688 487.554688 142.265625 486.71875 142.515625 485.894531 C 142.765625 485.070312 143.054688 484.261719 143.386719 483.464844 C 143.714844 482.667969 144.082031 481.890625 144.492188 481.132812 C 144.898438 480.371094 145.339844 479.632812 145.816406 478.917969 C 146.296875 478.203125 146.808594 477.511719 147.355469 476.84375 C 147.902344 476.179688 148.480469 475.542969 149.089844 474.933594 C 149.699219 474.324219 150.335938 473.746094 151.003906 473.199219 C 151.667969 472.652344 152.359375 472.140625 153.074219 471.660156 C 153.792969 471.183594 154.527344 470.738281 155.289062 470.332031 C 156.046875 469.925781 156.824219 469.558594 157.621094 469.230469 C 158.417969 468.898438 159.226562 468.609375 160.050781 468.359375 C 160.875 468.105469 161.710938 467.898438 162.554688 467.730469 C 163.398438 467.558594 164.25 467.433594 165.105469 467.347656 C 165.964844 467.261719 166.824219 467.21875 167.683594 467.21875 L 228.191406 467.21875 C 229.050781 467.21875 229.910156 467.261719 230.765625 467.347656 C 231.625 467.433594 232.476562 467.558594 233.320312 467.730469 C 234.164062 467.898438 235 468.105469 235.824219 468.359375 C 236.648438 468.609375 237.457031 468.898438 238.253906 469.230469 C 239.050781 469.558594 239.828125 469.925781 240.585938 470.332031 C 241.347656 470.738281 242.082031 471.183594 242.800781 471.660156 C 243.515625 472.140625 244.207031 472.652344 244.871094 473.199219 C 245.539062 473.746094 246.175781 474.324219 246.785156 474.933594 C 247.394531 475.542969 247.972656 476.179688 248.519531 476.84375 C 249.066406 477.511719 249.578125 478.203125 250.058594 478.917969 C 250.535156 479.632812 250.976562 480.371094 251.382812 481.132812 C 251.789062 481.890625 252.160156 482.667969 252.488281 483.464844 C 252.820312 484.261719 253.109375 485.070312 253.359375 485.894531 C 253.609375 486.71875 253.820312 487.554688 253.988281 488.398438 C 254.160156 489.242188 254.285156 490.09375 254.371094 490.949219 C 254.457031 491.808594 254.5 492.667969 254.5 493.527344 L 254.5 553.644531 C 254.5 554.503906 254.457031 555.363281 254.371094 556.21875 C 254.285156 557.078125 254.15625 557.929688 253.988281 558.773438 C 253.820312 559.617188 253.609375 560.453125 253.359375 561.277344 C 253.109375 562.101562 252.816406 562.910156 252.488281 563.707031 C 252.15625 564.5 251.789062 565.277344 251.382812 566.039062 C 250.976562 566.796875 250.535156 567.535156 250.054688 568.25 C 249.574219 568.96875 249.0625 569.65625 248.515625 570.324219 C 247.96875 570.988281 247.390625 571.628906 246.78125 572.234375 C 246.175781 572.84375 245.535156 573.421875 244.871094 573.96875 C 244.207031 574.515625 243.515625 575.027344 242.796875 575.507812 C 242.082031 575.988281 241.34375 576.429688 240.585938 576.835938 C 239.824219 577.242188 239.046875 577.609375 238.253906 577.941406 C 237.457031 578.269531 236.648438 578.5625 235.824219 578.8125 C 235 579.0625 234.164062 579.273438 233.320312 579.441406 C 232.476562 579.609375 231.625 579.738281 230.765625 579.824219 C 229.910156 579.910156 229.050781 579.953125 228.191406 579.953125 Z M 167.683594 487.457031 C 167.289062 487.464844 166.894531 487.507812 166.503906 487.589844 C 166.117188 487.667969 165.738281 487.789062 165.371094 487.941406 C 165.003906 488.097656 164.65625 488.285156 164.328125 488.507812 C 163.996094 488.730469 163.691406 488.980469 163.410156 489.261719 C 163.128906 489.542969 162.878906 489.847656 162.65625 490.179688 C 162.433594 490.507812 162.246094 490.855469 162.089844 491.222656 C 161.9375 491.589844 161.820312 491.964844 161.738281 492.355469 C 161.65625 492.746094 161.613281 493.136719 161.609375 493.535156 L 161.609375 553.648438 C 161.613281 554.046875 161.65625 554.441406 161.738281 554.832031 C 161.820312 555.21875 161.9375 555.597656 162.089844 555.964844 C 162.246094 556.328125 162.433594 556.679688 162.65625 557.007812 C 162.878906 557.335938 163.128906 557.644531 163.410156 557.925781 C 163.691406 558.207031 163.996094 558.457031 164.328125 558.679688 C 164.65625 558.902344 165.003906 559.089844 165.371094 559.242188 C 165.738281 559.398438 166.117188 559.515625 166.503906 559.597656 C 166.894531 559.679688 167.289062 559.722656 167.683594 559.726562 L 228.191406 559.726562 C 228.585938 559.722656 228.980469 559.679688 229.371094 559.597656 C 229.757812 559.515625 230.136719 559.398438 230.503906 559.242188 C 230.871094 559.089844 231.21875 558.902344 231.546875 558.679688 C 231.878906 558.457031 232.183594 558.207031 232.464844 557.925781 C 232.746094 557.644531 232.996094 557.335938 233.21875 557.007812 C 233.441406 556.679688 233.628906 556.328125 233.785156 555.964844 C 233.9375 555.597656 234.054688 555.21875 234.136719 554.828125 C 234.21875 554.441406 234.261719 554.046875 234.265625 553.648438 L 234.265625 493.527344 C 234.261719 493.132812 234.21875 492.738281 234.136719 492.347656 C 234.054688 491.960938 233.9375 491.582031 233.785156 491.214844 C 233.628906 490.847656 233.441406 490.5 233.21875 490.171875 C 232.996094 489.839844 232.746094 489.535156 232.464844 489.253906 C 232.183594 488.972656 231.878906 488.722656 231.546875 488.5 C 231.21875 488.277344 230.871094 488.089844 230.503906 487.933594 C 230.136719 487.78125 229.757812 487.664062 229.371094 487.582031 C 228.980469 487.5 228.585938 487.457031 228.191406 487.453125 Z M 167.683594 487.457031 " fill-opacity="1" fill-rule="nonzero"/><path fill="#a87b05" d="M 190.621094 545.570312 C 189.28125 545.570312 187.996094 545.316406 186.757812 544.804688 C 185.523438 544.292969 184.429688 543.566406 183.480469 542.621094 L 174.28125 533.460938 C 173.796875 532.996094 173.359375 532.488281 172.976562 531.933594 C 172.589844 531.382812 172.265625 530.796875 171.996094 530.179688 C 171.730469 529.566406 171.523438 528.925781 171.382812 528.269531 C 171.242188 527.613281 171.167969 526.945312 171.160156 526.273438 C 171.152344 525.601562 171.210938 524.933594 171.335938 524.273438 C 171.460938 523.613281 171.648438 522.96875 171.902344 522.347656 C 172.152344 521.722656 172.464844 521.128906 172.835938 520.570312 C 173.207031 520.007812 173.632812 519.488281 174.105469 519.011719 C 174.582031 518.535156 175.097656 518.109375 175.65625 517.738281 C 176.214844 517.363281 176.808594 517.046875 177.429688 516.792969 C 178.050781 516.535156 178.691406 516.34375 179.355469 516.21875 C 180.015625 516.089844 180.679688 516.027344 181.351562 516.03125 C 182.027344 516.039062 182.691406 516.109375 183.351562 516.246094 C 184.007812 516.386719 184.648438 516.585938 185.265625 516.851562 C 185.882812 517.117188 186.46875 517.441406 187.023438 517.824219 C 187.578125 518.207031 188.085938 518.640625 188.554688 519.125 L 190.621094 521.175781 L 207.3125 504.554688 C 207.785156 504.085938 208.296875 503.667969 208.847656 503.300781 C 209.402344 502.929688 209.984375 502.621094 210.601562 502.367188 C 211.214844 502.113281 211.847656 501.921875 212.5 501.792969 C 213.152344 501.664062 213.808594 501.601562 214.476562 501.601562 C 215.140625 501.601562 215.796875 501.667969 216.449219 501.800781 C 217.101562 501.929688 217.734375 502.125 218.347656 502.378906 C 218.960938 502.632812 219.542969 502.949219 220.09375 503.316406 C 220.648438 503.6875 221.15625 504.109375 221.625 504.578125 C 222.09375 505.050781 222.511719 505.5625 222.882812 506.117188 C 223.25 506.667969 223.558594 507.253906 223.8125 507.867188 C 224.066406 508.484375 224.257812 509.117188 224.386719 509.769531 C 224.511719 510.421875 224.578125 511.078125 224.574219 511.742188 C 224.574219 512.40625 224.507812 513.066406 224.375 513.71875 C 224.246094 514.367188 224.050781 515 223.792969 515.613281 C 223.539062 516.226562 223.226562 516.808594 222.855469 517.363281 C 222.484375 517.914062 222.0625 518.421875 221.59375 518.890625 L 197.746094 542.628906 C 196.800781 543.570312 195.707031 544.296875 194.472656 544.804688 C 193.242188 545.316406 191.957031 545.570312 190.621094 545.570312 Z M 190.621094 545.570312 " fill-opacity="1" fill-rule="nonzero"/><path fill="#a87b05" d="M 421.15625 533.707031 L 296.144531 533.707031 C 295.480469 533.707031 294.820312 533.640625 294.171875 533.511719 C 293.519531 533.382812 292.886719 533.191406 292.273438 532.9375 C 291.660156 532.679688 291.074219 532.371094 290.523438 532 C 289.972656 531.632812 289.460938 531.210938 288.992188 530.742188 C 288.519531 530.273438 288.101562 529.761719 287.730469 529.210938 C 287.363281 528.65625 287.050781 528.074219 286.796875 527.460938 C 286.542969 526.847656 286.351562 526.214844 286.222656 525.5625 C 286.09375 524.910156 286.027344 524.253906 286.027344 523.589844 C 286.027344 522.925781 286.09375 522.265625 286.222656 521.617188 C 286.351562 520.964844 286.542969 520.332031 286.796875 519.71875 C 287.050781 519.105469 287.363281 518.519531 287.730469 517.96875 C 288.101562 517.417969 288.519531 516.90625 288.992188 516.4375 C 289.460938 515.964844 289.972656 515.546875 290.523438 515.175781 C 291.074219 514.808594 291.660156 514.496094 292.273438 514.242188 C 292.886719 513.988281 293.519531 513.796875 294.171875 513.667969 C 294.820312 513.539062 295.480469 513.472656 296.144531 513.472656 L 421.15625 513.472656 C 421.820312 513.472656 422.476562 513.539062 423.128906 513.667969 C 423.78125 513.796875 424.414062 513.988281 425.027344 514.242188 C 425.640625 514.496094 426.222656 514.808594 426.777344 515.175781 C 427.328125 515.546875 427.839844 515.964844 428.308594 516.4375 C 428.777344 516.90625 429.199219 517.417969 429.566406 517.96875 C 429.9375 518.519531 430.246094 519.105469 430.503906 519.71875 C 430.757812 520.332031 430.949219 520.964844 431.078125 521.617188 C 431.207031 522.265625 431.273438 522.925781 431.273438 523.589844 C 431.273438 524.253906 431.207031 524.910156 431.078125 525.5625 C 430.949219 526.214844 430.757812 526.847656 430.503906 527.460938 C 430.246094 528.074219 429.9375 528.65625 429.566406 529.210938 C 429.199219 529.761719 428.777344 530.273438 428.308594 530.742188 C 427.839844 531.210938 427.328125 531.632812 426.777344 532 C 426.222656 532.371094 425.640625 532.679688 425.027344 532.9375 C 424.414062 533.191406 423.78125 533.382812 423.128906 533.511719 C 422.476562 533.640625 421.820312 533.707031 421.15625 533.707031 Z M 421.15625 533.707031 " fill-opacity="1" fill-rule="nonzero"/></svg>