<svg xmlns="http://www.w3.org/2000/svg" xmlns:xlink="http://www.w3.org/1999/xlink" width="1024" zoomAndPan="magnify" viewBox="0 0 768 767.999994" height="1024" preserveAspectRatio="xMidYMid meet" version="1.0"><defs><clipPath id="bf818fb088"><path d="M 76.800781 160.769531 L 685 160.769531 L 685 601 L 76.800781 601 Z M 76.800781 160.769531 " clip-rule="nonzero"/></clipPath></defs><path fill="#a87b05" d="M 546.914062 411.398438 L 547.117188 411.398438 C 547.800781 411.402344 548.480469 411.4375 549.160156 411.507812 C 549.839844 411.578125 550.511719 411.679688 551.179688 411.816406 C 551.847656 411.953125 552.507812 412.121094 553.160156 412.320312 C 553.8125 412.523438 554.453125 412.753906 555.085938 413.015625 C 555.714844 413.28125 556.328125 413.574219 556.929688 413.898438 C 557.53125 414.21875 558.113281 414.574219 558.679688 414.953125 C 559.246094 415.332031 559.792969 415.742188 560.320312 416.175781 C 560.847656 416.609375 561.351562 417.066406 561.832031 417.550781 C 562.3125 418.035156 562.769531 418.539062 563.203125 419.070312 C 563.632812 419.597656 564.039062 420.144531 564.417969 420.710938 C 564.796875 421.28125 565.144531 421.867188 565.46875 422.46875 C 565.789062 423.070312 566.078125 423.6875 566.339844 424.316406 C 566.601562 424.945312 566.832031 425.589844 567.027344 426.242188 C 567.226562 426.894531 567.390625 427.554688 567.523438 428.226562 C 567.660156 428.894531 567.757812 429.566406 567.824219 430.246094 C 567.894531 430.925781 567.925781 431.605469 567.929688 432.289062 C 567.929688 432.953125 567.992188 433.613281 568.121094 434.265625 C 568.253906 434.914062 568.445312 435.546875 568.699219 436.164062 C 568.953125 436.777344 569.265625 437.359375 569.632812 437.914062 C 570.003906 438.464844 570.421875 438.976562 570.890625 439.445312 C 571.363281 439.917969 571.875 440.335938 572.425781 440.707031 C 572.980469 441.074219 573.5625 441.386719 574.175781 441.640625 C 574.789062 441.894531 575.421875 442.085938 576.074219 442.214844 C 576.726562 442.347656 577.386719 442.410156 578.050781 442.410156 C 578.714844 442.410156 579.371094 442.347656 580.023438 442.214844 C 580.675781 442.085938 581.308594 441.894531 581.921875 441.640625 C 582.535156 441.386719 583.121094 441.074219 583.671875 440.707031 C 584.226562 440.335938 584.738281 439.917969 585.207031 439.445312 C 585.675781 438.976562 586.097656 438.464844 586.464844 437.914062 C 586.835938 437.359375 587.148438 436.777344 587.402344 436.164062 C 587.65625 435.546875 587.847656 434.914062 587.976562 434.265625 C 588.105469 433.613281 588.171875 432.953125 588.171875 432.289062 C 588.167969 431.15625 588.117188 430.027344 588.023438 428.902344 C 587.925781 427.773438 587.78125 426.652344 587.59375 425.535156 C 587.402344 424.421875 587.167969 423.3125 586.890625 422.21875 C 586.609375 421.121094 586.285156 420.039062 585.914062 418.96875 C 585.542969 417.898438 585.128906 416.847656 584.671875 415.8125 C 584.214844 414.777344 583.71875 413.761719 583.175781 412.769531 C 582.636719 411.773438 582.054688 410.804688 581.433594 409.859375 C 580.816406 408.910156 580.15625 407.992188 579.460938 407.101562 C 578.761719 406.207031 578.03125 405.347656 577.261719 404.515625 C 576.496094 403.683594 575.695312 402.886719 574.859375 402.121094 C 574.027344 401.355469 573.164062 400.625 572.269531 399.933594 C 571.375 399.238281 570.453125 398.582031 569.503906 397.964844 C 568.558594 397.347656 567.585938 396.769531 566.589844 396.234375 C 565.59375 395.695312 564.578125 395.199219 563.539062 394.746094 C 562.503906 394.292969 561.449219 393.882812 560.378906 393.515625 C 559.308594 393.148438 558.226562 392.828125 557.128906 392.550781 L 557.128906 378.714844 C 557.128906 378.050781 557.0625 377.390625 556.933594 376.738281 C 556.804688 376.089844 556.613281 375.457031 556.355469 374.839844 C 556.101562 374.226562 555.792969 373.644531 555.421875 373.089844 C 555.054688 372.539062 554.632812 372.027344 554.164062 371.558594 C 553.691406 371.085938 553.183594 370.667969 552.628906 370.300781 C 552.078125 369.929688 551.492188 369.617188 550.878906 369.363281 C 550.265625 369.109375 549.632812 368.917969 548.980469 368.789062 C 548.328125 368.65625 547.671875 368.59375 547.007812 368.59375 C 546.339844 368.59375 545.683594 368.65625 545.03125 368.789062 C 544.378906 368.917969 543.746094 369.109375 543.132812 369.363281 C 542.519531 369.617188 541.933594 369.929688 541.382812 370.300781 C 540.832031 370.667969 540.320312 371.085938 539.847656 371.558594 C 539.378906 372.027344 538.960938 372.539062 538.589844 373.089844 C 538.222656 373.644531 537.910156 374.226562 537.65625 374.839844 C 537.402344 375.457031 537.207031 376.089844 537.078125 376.738281 C 536.949219 377.390625 536.882812 378.050781 536.882812 378.714844 L 536.882812 392.601562 C 535.683594 392.90625 534.5 393.261719 533.332031 393.675781 C 532.160156 394.085938 531.015625 394.550781 529.886719 395.0625 C 528.761719 395.578125 527.660156 396.144531 526.585938 396.757812 C 525.507812 397.375 524.464844 398.035156 523.449219 398.746094 C 522.433594 399.453125 521.449219 400.207031 520.503906 401.007812 C 519.554688 401.804688 518.648438 402.644531 517.773438 403.523438 C 516.902344 404.40625 516.074219 405.324219 515.285156 406.28125 C 514.496094 407.234375 513.753906 408.226562 513.054688 409.246094 C 512.355469 410.269531 511.707031 411.324219 511.101562 412.40625 C 510.5 413.488281 509.945312 414.59375 509.441406 415.726562 C 508.941406 416.859375 508.488281 418.011719 508.089844 419.183594 C 507.691406 420.355469 507.347656 421.546875 507.054688 422.75 C 506.761719 423.953125 506.527344 425.167969 506.347656 426.394531 C 506.164062 427.617188 506.039062 428.851562 505.96875 430.085938 C 505.898438 431.324219 505.886719 432.5625 505.929688 433.800781 C 505.96875 435.039062 506.066406 436.269531 506.222656 437.5 C 506.375 438.730469 506.585938 439.949219 506.847656 441.160156 C 507.113281 442.371094 507.433594 443.566406 507.804688 444.746094 C 508.175781 445.929688 508.601562 447.089844 509.078125 448.234375 C 509.558594 449.375 510.085938 450.496094 510.664062 451.589844 C 511.246094 452.6875 511.871094 453.753906 512.546875 454.792969 C 513.222656 455.828125 513.945312 456.835938 514.710938 457.808594 C 515.476562 458.78125 516.285156 459.71875 517.136719 460.617188 C 517.988281 461.519531 518.878906 462.378906 519.808594 463.195312 C 520.738281 464.015625 521.703125 464.792969 522.703125 465.523438 C 523.703125 466.253906 524.734375 466.941406 525.792969 467.578125 C 526.855469 468.21875 527.945312 468.808594 529.058594 469.347656 C 530.171875 469.886719 531.308594 470.375 532.46875 470.8125 C 533.628906 471.25 534.804688 471.632812 536 471.964844 C 537.191406 472.296875 538.398438 472.570312 539.617188 472.792969 C 540.835938 473.015625 542.0625 473.179688 543.296875 473.289062 C 544.53125 473.402344 545.765625 473.457031 547.007812 473.453125 C 547.691406 473.453125 548.375 473.480469 549.058594 473.546875 C 549.738281 473.609375 550.417969 473.707031 551.089844 473.839844 C 551.761719 473.96875 552.425781 474.132812 553.082031 474.328125 C 553.738281 474.527344 554.382812 474.753906 555.019531 475.015625 C 555.652344 475.273438 556.273438 475.5625 556.878906 475.886719 C 557.484375 476.207031 558.070312 476.554688 558.640625 476.933594 C 559.210938 477.3125 559.765625 477.71875 560.292969 478.152344 C 560.824219 478.582031 561.335938 479.042969 561.820312 479.523438 C 562.308594 480.007812 562.769531 480.511719 563.203125 481.042969 C 563.640625 481.570312 564.050781 482.117188 564.433594 482.6875 C 564.816406 483.253906 565.167969 483.839844 565.492188 484.445312 C 565.816406 485.046875 566.113281 485.664062 566.375 486.296875 C 566.640625 486.929688 566.871094 487.574219 567.074219 488.226562 C 567.273438 488.882812 567.441406 489.546875 567.578125 490.21875 C 567.710938 490.890625 567.8125 491.566406 567.882812 492.25 C 567.953125 492.929688 567.988281 493.613281 567.988281 494.296875 C 567.988281 494.984375 567.957031 495.667969 567.890625 496.347656 C 567.828125 497.03125 567.726562 497.707031 567.59375 498.378906 C 567.460938 499.050781 567.296875 499.714844 567.101562 500.371094 C 566.902344 501.027344 566.671875 501.671875 566.410156 502.308594 C 566.152344 502.941406 565.859375 503.558594 565.539062 504.164062 C 565.214844 504.769531 564.863281 505.355469 564.484375 505.925781 C 564.105469 506.496094 563.699219 507.046875 563.265625 507.578125 C 562.832031 508.109375 562.371094 508.613281 561.886719 509.101562 C 561.402344 509.585938 560.898438 510.046875 560.367188 510.480469 C 559.839844 510.914062 559.289062 511.324219 558.71875 511.703125 C 558.152344 512.085938 557.5625 512.4375 556.960938 512.761719 C 556.355469 513.085938 555.738281 513.378906 555.105469 513.640625 C 554.472656 513.902344 553.828125 514.132812 553.171875 514.332031 C 552.515625 514.535156 551.855469 514.699219 551.183594 514.832031 C 550.511719 514.96875 549.832031 515.070312 549.152344 515.136719 C 548.46875 515.203125 547.785156 515.238281 547.101562 515.238281 C 546.414062 515.238281 545.730469 515.203125 545.050781 515.136719 C 544.367188 515.070312 543.691406 514.96875 543.019531 514.835938 C 542.347656 514.703125 541.683594 514.535156 541.027344 514.335938 C 540.371094 514.136719 539.726562 513.90625 539.09375 513.644531 C 538.460938 513.382812 537.84375 513.089844 537.238281 512.765625 C 536.636719 512.441406 536.050781 512.089844 535.480469 511.707031 C 534.910156 511.328125 534.359375 510.917969 533.832031 510.484375 C 533.300781 510.050781 532.796875 509.589844 532.3125 509.105469 C 531.828125 508.621094 531.367188 508.113281 530.933594 507.582031 C 530.5 507.050781 530.09375 506.503906 529.714844 505.933594 C 529.332031 505.363281 528.980469 504.773438 528.660156 504.171875 C 528.339844 503.566406 528.046875 502.945312 527.785156 502.3125 C 527.523438 501.679688 527.292969 501.035156 527.097656 500.378906 C 526.898438 499.722656 526.734375 499.058594 526.601562 498.386719 C 526.46875 497.714844 526.367188 497.039062 526.304688 496.355469 C 526.238281 495.675781 526.203125 494.992188 526.207031 494.304688 C 526.207031 493.640625 526.140625 492.984375 526.011719 492.332031 C 525.882812 491.679688 525.691406 491.046875 525.433594 490.433594 C 525.179688 489.816406 524.871094 489.234375 524.5 488.683594 C 524.128906 488.128906 523.710938 487.617188 523.242188 487.148438 C 522.769531 486.679688 522.261719 486.257812 521.707031 485.890625 C 521.15625 485.519531 520.570312 485.207031 519.957031 484.953125 C 519.34375 484.699219 518.710938 484.507812 518.058594 484.378906 C 517.40625 484.25 516.75 484.183594 516.085938 484.183594 C 515.417969 484.183594 514.761719 484.25 514.109375 484.378906 C 513.457031 484.507812 512.824219 484.699219 512.210938 484.953125 C 511.597656 485.207031 511.011719 485.519531 510.460938 485.890625 C 509.910156 486.257812 509.398438 486.679688 508.925781 487.148438 C 508.457031 487.617188 508.039062 488.128906 507.667969 488.683594 C 507.300781 489.234375 506.988281 489.816406 506.734375 490.433594 C 506.480469 491.046875 506.285156 491.679688 506.15625 492.332031 C 506.027344 492.984375 505.960938 493.640625 505.960938 494.304688 C 505.964844 495.433594 506.015625 496.5625 506.113281 497.6875 C 506.207031 498.816406 506.351562 499.933594 506.539062 501.046875 C 506.726562 502.164062 506.960938 503.265625 507.242188 504.363281 C 507.523438 505.457031 507.847656 506.539062 508.214844 507.605469 C 508.585938 508.671875 508.996094 509.722656 509.453125 510.757812 C 509.910156 511.792969 510.40625 512.804688 510.945312 513.796875 C 511.484375 514.792969 512.0625 515.761719 512.683594 516.707031 C 513.300781 517.648438 513.957031 518.566406 514.652344 519.460938 C 515.347656 520.351562 516.078125 521.210938 516.84375 522.042969 C 517.609375 522.871094 518.410156 523.671875 519.242188 524.433594 C 520.074219 525.199219 520.933594 525.929688 521.828125 526.621094 C 522.71875 527.316406 523.636719 527.972656 524.582031 528.589844 C 525.53125 529.207031 526.5 529.785156 527.492188 530.324219 C 528.488281 530.859375 529.5 531.355469 530.535156 531.8125 C 531.570312 532.265625 532.621094 532.675781 533.691406 533.042969 C 534.757812 533.410156 535.839844 533.734375 536.933594 534.011719 L 536.933594 547.898438 C 536.933594 548.566406 537 549.222656 537.128906 549.875 C 537.257812 550.527344 537.449219 551.160156 537.707031 551.773438 C 537.960938 552.386719 538.273438 552.972656 538.640625 553.523438 C 539.011719 554.074219 539.429688 554.585938 539.898438 555.058594 C 540.371094 555.527344 540.878906 555.945312 541.433594 556.316406 C 541.984375 556.683594 542.570312 556.996094 543.183594 557.25 C 543.796875 557.503906 544.429688 557.699219 545.082031 557.828125 C 545.734375 557.957031 546.390625 558.023438 547.058594 558.023438 C 547.722656 558.023438 548.378906 557.957031 549.03125 557.828125 C 549.683594 557.699219 550.316406 557.503906 550.929688 557.25 C 551.542969 556.996094 552.128906 556.683594 552.679688 556.316406 C 553.234375 555.945312 553.742188 555.527344 554.214844 555.058594 C 554.683594 554.585938 555.101562 554.074219 555.472656 553.523438 C 555.84375 552.972656 556.152344 552.386719 556.40625 551.773438 C 556.664062 551.160156 556.855469 550.527344 556.984375 549.875 C 557.113281 549.222656 557.179688 548.566406 557.179688 547.898438 L 557.179688 534.035156 C 558.378906 533.730469 559.566406 533.375 560.738281 532.964844 C 561.90625 532.554688 563.054688 532.089844 564.183594 531.574219 C 565.3125 531.0625 566.414062 530.496094 567.488281 529.882812 C 568.566406 529.269531 569.613281 528.605469 570.628906 527.898438 C 571.648438 527.1875 572.628906 526.433594 573.578125 525.636719 C 574.527344 524.839844 575.4375 524 576.308594 523.117188 C 577.183594 522.238281 578.011719 521.320312 578.800781 520.363281 C 579.589844 519.40625 580.335938 518.417969 581.035156 517.394531 C 581.734375 516.371094 582.386719 515.316406 582.992188 514.234375 C 583.597656 513.152344 584.148438 512.046875 584.652344 510.914062 C 585.15625 509.78125 585.609375 508.628906 586.007812 507.453125 C 586.410156 506.28125 586.753906 505.089844 587.046875 503.886719 C 587.335938 502.683594 587.574219 501.464844 587.757812 500.238281 C 587.9375 499.011719 588.0625 497.78125 588.132812 496.542969 C 588.203125 495.304688 588.21875 494.066406 588.175781 492.828125 C 588.132812 491.589844 588.035156 490.355469 587.882812 489.125 C 587.726562 487.894531 587.519531 486.675781 587.253906 485.464844 C 586.988281 484.253906 586.671875 483.054688 586.296875 481.875 C 585.925781 480.691406 585.5 479.527344 585.019531 478.382812 C 584.542969 477.242188 584.011719 476.121094 583.433594 475.027344 C 582.855469 473.929688 582.226562 472.863281 581.550781 471.824219 C 580.871094 470.785156 580.152344 469.777344 579.382812 468.804688 C 578.617188 467.832031 577.804688 466.894531 576.953125 465.996094 C 576.101562 465.09375 575.210938 464.234375 574.277344 463.414062 C 573.347656 462.597656 572.382812 461.820312 571.382812 461.089844 C 570.382812 460.355469 569.351562 459.671875 568.289062 459.035156 C 567.226562 458.394531 566.136719 457.804688 565.019531 457.265625 C 563.902344 456.726562 562.765625 456.238281 561.605469 455.800781 C 560.445312 455.363281 559.269531 454.980469 558.074219 454.652344 C 556.878906 454.320312 555.671875 454.046875 554.449219 453.824219 C 553.230469 453.605469 552.003906 453.441406 550.769531 453.332031 C 549.535156 453.222656 548.296875 453.167969 547.058594 453.171875 C 546.382812 453.15625 545.710938 453.113281 545.039062 453.035156 C 544.371094 452.957031 543.703125 452.847656 543.046875 452.703125 C 542.386719 452.5625 541.734375 452.386719 541.09375 452.183594 C 540.449219 451.976562 539.816406 451.742188 539.199219 451.472656 C 538.578125 451.207031 537.972656 450.910156 537.382812 450.585938 C 536.789062 450.261719 536.21875 449.910156 535.660156 449.527344 C 535.101562 449.148438 534.566406 448.738281 534.046875 448.308594 C 533.53125 447.875 533.035156 447.417969 532.5625 446.9375 C 532.089844 446.457031 531.640625 445.953125 531.214844 445.429688 C 530.792969 444.902344 530.394531 444.359375 530.019531 443.796875 C 529.648438 443.234375 529.304688 442.65625 528.988281 442.058594 C 528.675781 441.460938 528.386719 440.851562 528.132812 440.226562 C 527.875 439.605469 527.648438 438.96875 527.453125 438.324219 C 527.257812 437.679688 527.09375 437.023438 526.964844 436.363281 C 526.832031 435.699219 526.730469 435.035156 526.664062 434.363281 C 526.597656 433.691406 526.5625 433.019531 526.5625 432.34375 C 526.558594 431.667969 526.589844 430.996094 526.652344 430.324219 C 526.714844 429.652344 526.8125 428.984375 526.941406 428.324219 C 527.066406 427.660156 527.226562 427.003906 527.417969 426.359375 C 527.609375 425.710938 527.832031 425.074219 528.085938 424.449219 C 528.339844 423.824219 528.621094 423.210938 528.933594 422.613281 C 529.246094 422.015625 529.585938 421.433594 529.953125 420.871094 C 530.324219 420.304688 530.71875 419.757812 531.140625 419.230469 C 531.5625 418.707031 532.007812 418.199219 532.476562 417.714844 C 532.949219 417.234375 533.441406 416.773438 533.957031 416.335938 C 534.46875 415.902344 535.003906 415.492188 535.558594 415.105469 C 536.113281 414.722656 536.6875 414.367188 537.277344 414.039062 C 537.863281 413.710938 538.46875 413.410156 539.085938 413.140625 C 539.707031 412.871094 540.335938 412.628906 540.976562 412.421875 C 541.617188 412.210938 542.269531 412.035156 542.925781 411.886719 C 543.585938 411.742188 544.25 411.628906 544.917969 411.546875 C 545.589844 411.464844 546.261719 411.414062 546.933594 411.398438 Z M 546.914062 411.398438 " fill-opacity="1" fill-rule="nonzero"/><g clip-path="url(#bf818fb088)"><path fill="#a87b05" d="M 596.996094 335.789062 L 596.996094 170.683594 C 596.941406 170.28125 596.859375 169.886719 596.753906 169.5 C 596.597656 168.121094 596.164062 166.835938 595.460938 165.640625 C 595.308594 165.390625 595.285156 165.105469 595.113281 164.863281 C 594.941406 164.621094 594.761719 164.578125 594.617188 164.398438 C 594.097656 163.765625 593.507812 163.210938 592.847656 162.726562 C 592.449219 162.410156 592.03125 162.128906 591.59375 161.875 C 590.386719 161.289062 589.117188 160.914062 587.785156 160.742188 C 587.484375 160.667969 587.183594 160.605469 586.875 160.5625 L 87.003906 160.5625 C 86.695312 160.605469 86.390625 160.667969 86.089844 160.742188 C 85.464844 160.808594 84.851562 160.933594 84.25 161.117188 C 83.585938 161.289062 82.949219 161.535156 82.335938 161.847656 C 81.820312 162.136719 81.339844 162.476562 80.890625 162.859375 C 80.316406 163.292969 79.796875 163.785156 79.332031 164.335938 C 79.113281 164.515625 78.910156 164.703125 78.714844 164.902344 C 78.558594 165.210938 78.417969 165.53125 78.296875 165.855469 C 77.605469 167.066406 77.195312 168.371094 77.074219 169.761719 C 77.074219 170.09375 76.882812 170.378906 76.882812 170.773438 L 76.882812 500.90625 C 76.882812 501.054688 76.882812 501.199219 76.882812 501.359375 L 76.882812 502.070312 C 76.882812 502.300781 76.992188 502.492188 77.011719 502.726562 C 77.0625 503.699219 77.25 504.644531 77.578125 505.5625 C 77.8125 506.09375 78.082031 506.601562 78.398438 507.089844 C 78.605469 507.550781 78.84375 507.996094 79.117188 508.425781 C 79.21875 508.558594 79.390625 508.597656 79.503906 508.71875 C 80.304688 509.617188 81.242188 510.34375 82.316406 510.894531 C 82.46875 510.976562 82.589844 511.117188 82.75 511.1875 C 84.09375 511.84375 85.511719 512.179688 87.003906 512.199219 L 419.136719 512.199219 C 420.148438 514.851562 421.242188 517.46875 422.417969 520.050781 C 423.589844 522.632812 424.84375 525.175781 426.175781 527.679688 C 427.507812 530.183594 428.917969 532.644531 430.402344 535.0625 C 431.886719 537.480469 433.445312 539.847656 435.078125 542.167969 C 436.710938 544.488281 438.410156 546.757812 440.183594 548.972656 C 441.957031 551.183594 443.796875 553.34375 445.703125 555.441406 C 447.613281 557.542969 449.582031 559.582031 451.617188 561.558594 C 453.648438 563.539062 455.742188 565.449219 457.894531 567.296875 C 460.046875 569.144531 462.253906 570.925781 464.519531 572.636719 C 466.78125 574.347656 469.097656 575.984375 471.460938 577.550781 C 473.824219 579.117188 476.238281 580.609375 478.695312 582.027344 C 481.152344 583.445312 483.652344 584.78125 486.191406 586.042969 C 488.734375 587.304688 491.308594 588.488281 493.925781 589.589844 C 496.539062 590.691406 499.183594 591.710938 501.863281 592.648438 C 504.539062 593.585938 507.242188 594.4375 509.972656 595.207031 C 512.707031 595.976562 515.457031 596.660156 518.230469 597.257812 C 521.003906 597.855469 523.792969 598.367188 526.597656 598.792969 C 529.402344 599.21875 532.21875 599.554688 535.042969 599.804688 C 537.867188 600.054688 540.699219 600.214844 543.535156 600.289062 C 546.371094 600.363281 549.207031 600.351562 552.042969 600.25 C 554.875 600.144531 557.707031 599.957031 560.527344 599.679688 C 563.351562 599.402344 566.164062 599.035156 568.964844 598.582031 C 571.765625 598.128906 574.546875 597.589844 577.316406 596.964844 C 580.082031 596.339844 582.828125 595.628906 585.550781 594.832031 C 588.273438 594.039062 590.96875 593.15625 593.636719 592.195312 C 596.304688 591.230469 598.941406 590.183594 601.542969 589.058594 C 604.148438 587.929688 606.710938 586.722656 609.242188 585.4375 C 611.769531 584.152344 614.253906 582.785156 616.699219 581.34375 C 619.140625 579.90625 621.539062 578.390625 623.886719 576.796875 C 626.238281 575.207031 628.535156 573.546875 630.78125 571.816406 C 633.027344 570.082031 635.21875 568.28125 637.351562 566.414062 C 639.484375 564.542969 641.558594 562.609375 643.574219 560.613281 C 645.585938 558.613281 647.539062 556.554688 649.425781 554.4375 C 651.308594 552.320312 653.128906 550.144531 654.878906 547.910156 C 656.632812 545.679688 658.3125 543.394531 659.921875 541.058594 C 661.53125 538.722656 663.066406 536.339844 664.527344 533.90625 C 665.988281 531.476562 667.371094 529 668.679688 526.484375 C 669.984375 523.964844 671.214844 521.410156 672.363281 518.816406 C 673.511719 516.222656 674.578125 513.59375 675.5625 510.933594 C 676.546875 508.273438 677.449219 505.585938 678.269531 502.871094 C 679.085938 500.152344 679.820312 497.414062 680.46875 494.652344 C 681.117188 491.890625 681.675781 489.113281 682.152344 486.316406 C 682.628906 483.519531 683.015625 480.710938 683.316406 477.890625 C 683.617188 475.066406 683.832031 472.242188 683.957031 469.40625 C 684.082031 466.574219 684.117188 463.738281 684.066406 460.902344 C 684.015625 458.066406 683.878906 455.234375 683.652344 452.40625 C 683.425781 449.578125 683.109375 446.757812 682.707031 443.953125 C 682.304688 441.144531 681.816406 438.351562 681.242188 435.570312 C 680.667969 432.792969 680.003906 430.035156 679.257812 427.300781 C 678.511719 424.5625 677.679688 421.851562 676.765625 419.167969 C 675.851562 416.480469 674.851562 413.828125 673.773438 411.207031 C 672.691406 408.582031 671.53125 405.996094 670.292969 403.445312 C 669.050781 400.894531 667.730469 398.382812 666.335938 395.914062 C 664.9375 393.445312 663.464844 391.019531 661.917969 388.644531 C 660.371094 386.265625 658.75 383.9375 657.058594 381.660156 C 655.367188 379.382812 653.605469 377.164062 651.777344 374.996094 C 649.945312 372.828125 648.050781 370.71875 646.089844 368.667969 C 644.128906 366.617188 642.105469 364.632812 640.023438 362.707031 C 637.9375 360.785156 635.792969 358.925781 633.59375 357.136719 C 631.394531 355.34375 629.140625 353.621094 626.835938 351.972656 C 624.527344 350.320312 622.171875 348.742188 619.765625 347.238281 C 617.363281 345.734375 614.914062 344.304688 612.417969 342.953125 C 609.925781 341.601562 607.390625 340.324219 604.820312 339.128906 C 602.246094 337.9375 599.640625 336.820312 596.996094 335.789062 Z M 547.035156 326.222656 C 542.238281 326.226562 537.449219 326.480469 532.679688 326.988281 C 527.90625 327.496094 523.171875 328.253906 518.480469 329.257812 C 513.785156 330.265625 509.160156 331.515625 504.597656 333.007812 C 500.039062 334.503906 495.566406 336.234375 491.1875 338.199219 C 486.808594 340.164062 482.546875 342.351562 478.398438 344.769531 C 474.25 347.183594 470.242188 349.808594 466.371094 352.644531 C 462.5 355.484375 458.789062 358.515625 455.234375 361.746094 C 451.683594 364.972656 448.3125 368.378906 445.121094 371.964844 L 387.074219 324.015625 L 576.753906 190.167969 L 576.753906 329.5625 C 566.96875 327.363281 557.066406 326.25 547.035156 326.222656 Z M 97.125 190.238281 L 286.796875 324.039062 L 97.125 480.40625 Z M 118.867188 180.804688 L 554.972656 180.804688 L 336.929688 334.625 Z M 115 491.894531 L 303.941406 336.132812 L 331.089844 355.28125 C 331.941406 355.882812 332.867188 356.34375 333.859375 356.65625 C 334.855469 356.972656 335.875 357.128906 336.917969 357.128906 C 337.960938 357.128906 338.980469 356.972656 339.976562 356.65625 C 340.972656 356.34375 341.894531 355.882812 342.75 355.28125 L 369.925781 336.113281 L 432.679688 387.945312 C 430.175781 391.722656 427.867188 395.613281 425.75 399.621094 C 423.632812 403.625 421.722656 407.730469 420.015625 411.925781 C 418.308594 416.125 416.816406 420.394531 415.535156 424.742188 C 414.253906 429.089844 413.195312 433.488281 412.355469 437.941406 C 411.511719 442.394531 410.894531 446.878906 410.503906 451.390625 C 410.109375 455.90625 409.941406 460.425781 410 464.957031 C 410.058594 469.488281 410.339844 474.007812 410.847656 478.507812 C 411.359375 483.011719 412.089844 487.476562 413.042969 491.90625 Z M 547.035156 580.109375 C 545.125 580.109375 543.214844 580.058594 541.304688 579.964844 C 539.394531 579.871094 537.488281 579.730469 535.585938 579.542969 C 533.683594 579.355469 531.785156 579.125 529.894531 578.84375 C 528.003906 578.5625 526.121094 578.234375 524.246094 577.863281 C 522.371094 577.488281 520.503906 577.070312 518.648438 576.605469 C 516.796875 576.140625 514.953125 575.632812 513.125 575.078125 C 511.292969 574.523438 509.480469 573.921875 507.679688 573.277344 C 505.878906 572.632812 504.09375 571.945312 502.328125 571.214844 C 500.5625 570.484375 498.816406 569.707031 497.085938 568.890625 C 495.359375 568.074219 493.652344 567.214844 491.964844 566.3125 C 490.277344 565.410156 488.617188 564.46875 486.976562 563.484375 C 485.335938 562.503906 483.71875 561.480469 482.128906 560.417969 C 480.542969 559.355469 478.976562 558.253906 477.441406 557.117188 C 475.90625 555.976562 474.398438 554.800781 472.921875 553.589844 C 471.445312 552.375 469.996094 551.125 468.582031 549.84375 C 467.164062 548.558594 465.78125 547.242188 464.425781 545.890625 C 463.074219 544.535156 461.757812 543.152344 460.472656 541.734375 C 459.191406 540.320312 457.941406 538.871094 456.726562 537.394531 C 455.515625 535.914062 454.339844 534.410156 453.199219 532.875 C 452.0625 531.335938 450.960938 529.773438 449.898438 528.183594 C 448.835938 526.59375 447.8125 524.980469 446.832031 523.339844 C 445.847656 521.699219 444.90625 520.039062 444.003906 518.351562 C 443.101562 516.664062 442.242188 514.957031 441.425781 513.230469 C 440.609375 511.5 439.835938 509.753906 439.101562 507.988281 C 438.371094 506.21875 437.683594 504.4375 437.039062 502.636719 C 436.394531 500.835938 435.796875 499.023438 435.242188 497.191406 C 434.6875 495.363281 434.175781 493.519531 433.710938 491.664062 C 433.246094 489.8125 432.828125 487.945312 432.457031 486.070312 C 432.082031 484.195312 431.753906 482.3125 431.476562 480.421875 C 431.195312 478.53125 430.960938 476.632812 430.773438 474.730469 C 430.585938 472.828125 430.445312 470.921875 430.351562 469.011719 C 430.257812 467.101562 430.210938 465.191406 430.210938 463.277344 C 430.210938 461.367188 430.257812 459.457031 430.351562 457.546875 C 430.445312 455.636719 430.585938 453.730469 430.773438 451.828125 C 430.960938 449.925781 431.195312 448.027344 431.476562 446.136719 C 431.757812 444.246094 432.082031 442.363281 432.457031 440.488281 C 432.828125 438.613281 433.25 436.746094 433.714844 434.890625 C 434.179688 433.039062 434.6875 431.195312 435.242188 429.367188 C 435.796875 427.535156 436.398438 425.722656 437.042969 423.921875 C 437.6875 422.121094 438.375 420.335938 439.105469 418.570312 C 439.835938 416.804688 440.613281 415.058594 441.429688 413.328125 C 442.246094 411.601562 443.105469 409.894531 444.007812 408.207031 C 444.910156 406.519531 445.851562 404.859375 446.835938 403.21875 C 447.816406 401.578125 448.839844 399.964844 449.902344 398.375 C 450.964844 396.785156 452.066406 395.222656 453.203125 393.683594 C 454.34375 392.148438 455.519531 390.644531 456.730469 389.164062 C 457.945312 387.6875 459.195312 386.238281 460.476562 384.824219 C 461.761719 383.40625 463.078125 382.023438 464.433594 380.671875 C 465.785156 379.320312 467.167969 378 468.585938 376.714844 C 470.003906 375.433594 471.449219 374.183594 472.925781 372.972656 C 474.40625 371.757812 475.914062 370.582031 477.449219 369.445312 C 478.984375 368.304688 480.546875 367.203125 482.136719 366.140625 C 483.726562 365.082031 485.339844 364.058594 486.980469 363.074219 C 488.621094 362.09375 490.285156 361.148438 491.96875 360.25 C 493.65625 359.347656 495.363281 358.488281 497.09375 357.671875 C 498.820312 356.851562 500.570312 356.078125 502.335938 355.347656 C 504.101562 354.617188 505.882812 353.929688 507.683594 353.285156 C 509.484375 352.640625 511.300781 352.039062 513.128906 351.484375 C 514.960938 350.929688 516.800781 350.421875 518.65625 349.957031 C 520.511719 349.492188 522.375 349.074219 524.25 348.699219 C 526.125 348.328125 528.007812 348 529.902344 347.71875 C 531.792969 347.441406 533.6875 347.207031 535.59375 347.019531 C 537.496094 346.832031 539.402344 346.691406 541.3125 346.597656 C 543.21875 346.503906 545.132812 346.457031 547.042969 346.457031 C 548.957031 346.457031 550.867188 346.503906 552.777344 346.597656 C 554.683594 346.691406 556.589844 346.832031 558.496094 347.019531 C 560.398438 347.207031 562.292969 347.441406 564.183594 347.722656 C 566.078125 348.003906 567.960938 348.328125 569.835938 348.703125 C 571.710938 349.074219 573.574219 349.496094 575.429688 349.960938 C 577.285156 350.425781 579.125 350.933594 580.957031 351.488281 C 582.785156 352.042969 584.601562 352.644531 586.402344 353.289062 C 588.199219 353.933594 589.984375 354.621094 591.75 355.351562 C 593.515625 356.085938 595.265625 356.859375 596.992188 357.675781 C 598.722656 358.492188 600.429688 359.355469 602.113281 360.253906 C 603.800781 361.15625 605.464844 362.097656 607.101562 363.082031 C 608.742188 364.066406 610.359375 365.085938 611.949219 366.148438 C 613.539062 367.210938 615.101562 368.3125 616.636719 369.453125 C 618.171875 370.589844 619.679688 371.765625 621.15625 372.980469 C 622.632812 374.191406 624.082031 375.441406 625.496094 376.726562 C 626.914062 378.011719 628.296875 379.328125 629.652344 380.679688 C 631.003906 382.03125 632.320312 383.417969 633.605469 384.832031 C 634.886719 386.25 636.136719 387.699219 637.347656 389.175781 C 638.5625 390.652344 639.738281 392.160156 640.875 393.695312 C 642.015625 395.230469 643.117188 396.792969 644.179688 398.382812 C 645.242188 399.972656 646.261719 401.589844 647.246094 403.230469 C 648.226562 404.871094 649.171875 406.53125 650.070312 408.21875 C 650.972656 409.90625 651.832031 411.613281 652.648438 413.339844 C 653.464844 415.070312 654.242188 416.816406 654.972656 418.582031 C 655.703125 420.351562 656.390625 422.132812 657.035156 423.933594 C 657.679688 425.734375 658.277344 427.550781 658.835938 429.378906 C 659.390625 431.207031 659.898438 433.050781 660.363281 434.90625 C 660.828125 436.761719 661.246094 438.625 661.617188 440.5 C 661.992188 442.375 662.320312 444.257812 662.597656 446.148438 C 662.878906 448.042969 663.113281 449.9375 663.300781 451.839844 C 663.488281 453.742188 663.628906 455.648438 663.722656 457.558594 C 663.816406 459.46875 663.863281 461.378906 663.863281 463.292969 C 663.859375 465.203125 663.808594 467.113281 663.714844 469.023438 C 663.617188 470.929688 663.476562 472.835938 663.285156 474.738281 C 663.097656 476.640625 662.859375 478.535156 662.578125 480.425781 C 662.296875 482.316406 661.96875 484.199219 661.59375 486.074219 C 661.21875 487.949219 660.796875 489.8125 660.332031 491.664062 C 659.867188 493.519531 659.355469 495.359375 658.800781 497.1875 C 658.242188 499.015625 657.644531 500.832031 656.996094 502.628906 C 656.351562 504.429688 655.664062 506.210938 654.929688 507.976562 C 654.199219 509.742188 653.421875 511.488281 652.605469 513.214844 C 651.785156 514.941406 650.925781 516.648438 650.023438 518.332031 C 649.125 520.019531 648.179688 521.679688 647.199219 523.320312 C 646.214844 524.957031 645.191406 526.570312 644.128906 528.160156 C 643.066406 529.75 641.964844 531.3125 640.828125 532.847656 C 639.6875 534.382812 638.511719 535.886719 637.300781 537.363281 C 636.085938 538.839844 634.839844 540.289062 633.554688 541.703125 C 632.273438 543.121094 630.953125 544.503906 629.601562 545.855469 C 628.25 547.207031 626.867188 548.523438 625.449219 549.808594 C 624.035156 551.089844 622.589844 552.339844 621.109375 553.550781 C 619.632812 554.765625 618.128906 555.941406 616.59375 557.078125 C 615.058594 558.21875 613.496094 559.320312 611.90625 560.378906 C 610.316406 561.441406 608.703125 562.464844 607.066406 563.449219 C 605.425781 564.433594 603.765625 565.375 602.078125 566.277344 C 600.394531 567.175781 598.6875 568.035156 596.960938 568.855469 C 595.234375 569.671875 593.484375 570.449219 591.722656 571.179688 C 589.957031 571.914062 588.171875 572.601562 586.375 573.246094 C 584.574219 573.890625 582.761719 574.492188 580.933594 575.046875 C 579.105469 575.605469 577.261719 576.113281 575.410156 576.582031 C 573.554688 577.046875 571.691406 577.464844 569.816406 577.839844 C 567.945312 578.214844 566.0625 578.542969 564.171875 578.824219 C 562.28125 579.109375 560.382812 579.34375 558.484375 579.53125 C 556.582031 579.722656 554.675781 579.863281 552.765625 579.960938 C 550.859375 580.054688 548.949219 580.105469 547.035156 580.109375 Z M 547.035156 580.109375 " fill-opacity="1" fill-rule="nonzero"/></g></svg>