<svg xmlns="http://www.w3.org/2000/svg" xmlns:xlink="http://www.w3.org/1999/xlink" width="1024" zoomAndPan="magnify" viewBox="0 0 768 767.999994" height="1024" preserveAspectRatio="xMidYMid meet" version="1.0"><path fill="#ffffff" d="M 384.496094 77.359375 C 214.359375 77.933594 78.378906 216.261719 80.601562 386.375 C 80.703125 394.921875 81.164062 403.449219 81.984375 411.957031 C 82.804688 420.464844 83.984375 428.925781 85.519531 437.332031 C 87.054688 445.742188 88.941406 454.070312 91.179688 462.320312 C 93.417969 470.566406 96 478.707031 98.925781 486.738281 C 101.851562 494.769531 105.109375 502.664062 108.703125 510.417969 C 112.296875 518.175781 116.210938 525.765625 120.441406 533.191406 C 124.675781 540.617188 129.214844 547.851562 134.058594 554.890625 C 138.90625 561.933594 144.039062 568.757812 149.457031 575.367188 C 150.308594 576.410156 151.078125 577.511719 151.765625 578.671875 C 152.453125 579.828125 153.050781 581.03125 153.558594 582.28125 C 154.0625 583.527344 154.476562 584.804688 154.792969 586.117188 C 155.105469 587.425781 155.324219 588.75 155.441406 590.09375 C 155.558594 591.433594 155.574219 592.777344 155.492188 594.121094 C 155.40625 595.464844 155.226562 596.796875 154.941406 598.113281 C 154.660156 599.429688 154.28125 600.71875 153.804688 601.976562 C 153.328125 603.238281 152.761719 604.457031 152.105469 605.632812 L 125.835938 652.707031 C 118.550781 665.757812 130.417969 681.1875 144.902344 677.5 L 233.882812 654.847656 C 236.984375 654.058594 240.128906 653.828125 243.3125 654.15625 C 246.5 654.480469 249.53125 655.347656 252.410156 656.746094 C 262.21875 661.511719 272.253906 665.738281 282.519531 669.421875 C 292.785156 673.105469 303.21875 676.222656 313.820312 678.785156 C 324.417969 681.34375 335.128906 683.324219 345.941406 684.726562 C 356.757812 686.132812 367.613281 686.953125 378.519531 687.1875 C 549.574219 691.054688 689.980469 554.375 690.515625 383.285156 C 691.042969 214.066406 553.734375 76.789062 384.496094 77.359375 Z M 385.546875 649.6875 C 381.171875 649.6875 376.796875 649.582031 372.425781 649.367188 C 368.054688 649.152344 363.691406 648.832031 359.335938 648.402344 C 354.980469 647.972656 350.640625 647.4375 346.3125 646.796875 C 341.984375 646.152344 337.671875 645.40625 333.378906 644.550781 C 329.089844 643.699219 324.820312 642.738281 320.574219 641.675781 C 316.332031 640.613281 312.113281 639.445312 307.925781 638.175781 C 303.738281 636.90625 299.585938 635.535156 295.464844 634.058594 C 291.34375 632.585938 287.261719 631.011719 283.21875 629.335938 C 279.175781 627.664062 275.175781 625.890625 271.222656 624.019531 C 267.265625 622.148438 263.359375 620.179688 259.5 618.117188 C 255.640625 616.054688 251.832031 613.898438 248.078125 611.648438 C 244.324219 609.402344 240.628906 607.058594 236.992188 604.628906 C 233.351562 602.199219 229.777344 599.679688 226.261719 597.074219 C 222.746094 594.464844 219.296875 591.773438 215.914062 589 C 212.53125 586.222656 209.21875 583.367188 205.976562 580.425781 C 202.734375 577.488281 199.566406 574.472656 196.472656 571.378906 C 193.378906 568.285156 190.359375 565.113281 187.421875 561.871094 C 184.484375 558.628906 181.625 555.316406 178.847656 551.9375 C 176.074219 548.554688 173.382812 545.105469 170.773438 541.589844 C 168.167969 538.074219 165.648438 534.5 163.21875 530.859375 C 160.785156 527.222656 158.445312 523.527344 156.195312 519.773438 C 153.945312 516.019531 151.789062 512.214844 149.726562 508.355469 C 147.664062 504.496094 145.699219 500.585938 143.828125 496.632812 C 141.957031 492.675781 140.183594 488.675781 138.507812 484.632812 C 136.832031 480.589844 135.257812 476.507812 133.785156 472.390625 C 132.308594 468.269531 130.9375 464.117188 129.667969 459.929688 C 128.398438 455.742188 127.230469 451.523438 126.167969 447.28125 C 125.105469 443.035156 124.144531 438.765625 123.292969 434.476562 C 122.4375 430.183594 121.691406 425.875 121.046875 421.542969 C 120.40625 417.214844 119.871094 412.875 119.441406 408.519531 C 119.011719 404.164062 118.691406 399.800781 118.476562 395.429688 C 118.261719 391.0625 118.152344 386.6875 118.152344 382.3125 C 118.152344 234.644531 237.871094 114.933594 385.546875 114.933594 C 532.648438 114.933594 652.007812 233.71875 652.933594 380.59375 C 653.863281 527.964844 532.933594 649.6875 385.546875 649.6875 Z M 385.546875 649.6875 " fill-opacity="1" fill-rule="nonzero"/><path fill="#ffffff" d="M 337.757812 252.320312 L 337.878906 252.566406 L 353.828125 284.195312 C 354.683594 285.894531 355.402344 287.652344 355.972656 289.46875 C 356.546875 291.285156 356.972656 293.136719 357.246094 295.023438 C 357.523438 296.90625 357.644531 298.800781 357.613281 300.707031 C 357.585938 302.613281 357.402344 304.503906 357.066406 306.378906 C 356.730469 308.253906 356.246094 310.089844 355.613281 311.886719 C 354.980469 313.683594 354.210938 315.417969 353.296875 317.089844 C 352.386719 318.761719 351.347656 320.351562 350.179688 321.855469 C 349.011719 323.359375 347.730469 324.761719 346.335938 326.058594 C 344.945312 327.347656 343.671875 328.738281 342.503906 330.234375 C 341.339844 331.726562 340.300781 333.304688 339.390625 334.964844 C 338.480469 336.625 337.707031 338.34375 337.074219 340.128906 C 336.4375 341.914062 335.949219 343.738281 335.609375 345.601562 C 335.269531 347.464844 335.078125 349.339844 335.039062 351.234375 C 335 353.128906 335.113281 355.011719 335.375 356.886719 C 335.636719 358.761719 336.050781 360.605469 336.609375 362.414062 C 337.167969 364.222656 337.871094 365.976562 338.710938 367.675781 C 348.285156 386.898438 364.871094 413.394531 390.183594 432.511719 C 391.59375 433.585938 393.078125 434.542969 394.628906 435.394531 C 396.183594 436.242188 397.792969 436.972656 399.457031 437.582031 C 401.121094 438.1875 402.820312 438.671875 404.554688 439.023438 C 406.289062 439.378906 408.042969 439.601562 409.808594 439.695312 C 411.578125 439.789062 413.34375 439.75 415.105469 439.578125 C 416.871094 439.40625 418.609375 439.101562 420.328125 438.671875 C 422.042969 438.238281 423.71875 437.683594 425.355469 437 C 426.988281 436.316406 428.5625 435.515625 430.078125 434.597656 L 440.347656 428.351562 C 442.652344 426.949219 445.082031 425.824219 447.644531 424.976562 C 450.203125 424.132812 452.824219 423.585938 455.511719 423.335938 C 458.195312 423.089844 460.875 423.148438 463.546875 423.511719 C 466.214844 423.878906 468.8125 424.539062 471.332031 425.496094 L 512.15625 441.015625 C 513.242188 441.429688 514.300781 441.890625 515.339844 442.410156 C 516.378906 442.925781 517.390625 443.492188 518.375 444.105469 C 519.355469 444.722656 520.308594 445.386719 521.222656 446.09375 C 522.140625 446.804688 523.023438 447.554688 523.867188 448.351562 C 524.710938 449.148438 525.515625 449.984375 526.277344 450.859375 C 527.039062 451.730469 527.753906 452.640625 528.429688 453.585938 C 529.101562 454.53125 529.726562 455.507812 530.300781 456.515625 C 530.878906 457.519531 531.402344 458.554688 531.878906 459.609375 C 532.355469 460.667969 532.777344 461.75 533.144531 462.847656 C 533.515625 463.949219 533.828125 465.0625 534.089844 466.191406 C 534.347656 467.324219 534.550781 468.464844 534.699219 469.613281 C 534.847656 470.765625 534.9375 471.917969 534.972656 473.078125 C 535.007812 474.238281 534.984375 475.398438 534.902344 476.554688 C 534.824219 477.710938 534.6875 478.863281 534.496094 480.003906 C 534.300781 481.148438 534.054688 482.28125 533.75 483.398438 C 533.445312 484.519531 533.085938 485.621094 532.675781 486.707031 C 532.199219 487.953125 531.65625 489.167969 531.042969 490.355469 L 519.730469 512.28125 C 519.273438 513.164062 518.78125 514.03125 518.25 514.875 C 517.71875 515.714844 517.15625 516.535156 516.558594 517.332031 C 515.957031 518.128906 515.328125 518.898438 514.664062 519.640625 C 514 520.382812 513.304688 521.09375 512.582031 521.777344 C 511.855469 522.464844 511.105469 523.117188 510.324219 523.734375 C 509.546875 524.355469 508.742188 524.945312 507.914062 525.496094 C 507.085938 526.050781 506.234375 526.566406 505.363281 527.046875 C 504.488281 527.527344 503.597656 527.972656 502.691406 528.378906 C 501.78125 528.785156 500.855469 529.152344 499.914062 529.480469 C 498.972656 529.808594 498.019531 530.09375 497.054688 530.34375 C 496.089844 530.589844 495.117188 530.796875 494.136719 530.960938 C 493.152344 531.128906 492.164062 531.253906 491.171875 531.335938 C 490.179688 531.417969 489.1875 531.457031 488.191406 531.457031 C 487.195312 531.453125 486.199219 531.410156 485.207031 531.324219 C 484.214844 531.242188 483.226562 531.113281 482.246094 530.945312 C 481.261719 530.777344 480.289062 530.566406 479.328125 530.316406 C 415.210938 513.730469 262.40625 456.074219 250.09375 281.726562 C 249.972656 280.003906 249.976562 278.285156 250.105469 276.5625 C 250.234375 274.84375 250.488281 273.140625 250.867188 271.457031 C 251.246094 269.773438 251.742188 268.128906 252.363281 266.519531 C 252.980469 264.90625 253.710938 263.351562 254.558594 261.847656 C 255.40625 260.34375 256.355469 258.910156 257.410156 257.542969 C 258.464844 256.179688 259.617188 254.898438 260.859375 253.703125 C 262.101562 252.503906 263.425781 251.40625 264.828125 250.402344 C 266.230469 249.398438 267.699219 248.5 269.234375 247.710938 L 290.054688 237.015625 C 291.085938 236.488281 292.140625 236.007812 293.222656 235.582031 C 294.300781 235.15625 295.398438 234.78125 296.511719 234.460938 C 297.628906 234.144531 298.757812 233.878906 299.898438 233.671875 C 301.039062 233.464844 302.1875 233.3125 303.34375 233.214844 C 304.5 233.121094 305.660156 233.082031 306.820312 233.101562 C 307.976562 233.121094 309.132812 233.195312 310.289062 233.328125 C 311.441406 233.460938 312.582031 233.648438 313.71875 233.890625 C 314.851562 234.136719 315.972656 234.4375 317.074219 234.789062 C 318.179688 235.144531 319.265625 235.550781 320.328125 236.011719 C 321.394531 236.472656 322.433594 236.988281 323.449219 237.550781 C 324.460938 238.113281 325.445312 238.722656 326.402344 239.382812 C 327.355469 240.042969 328.273438 240.75 329.160156 241.5 C 330.042969 242.25 330.890625 243.042969 331.699219 243.875 C 332.503906 244.707031 333.269531 245.578125 333.992188 246.488281 C 334.710938 247.394531 335.386719 248.335938 336.015625 249.3125 C 336.644531 250.285156 337.226562 251.289062 337.757812 252.320312 Z M 337.757812 252.320312 " fill-opacity="1" fill-rule="nonzero"/></svg>